<?xml version="1.0" encoding="utf-8"?>
<!-- Generator: Adobe Illustrator 27.5.0, SVG Export Plug-In . SVG Version: 6.00 Build 0)  -->
<svg version="1.1" xmlns="http://www.w3.org/2000/svg" xmlns:xlink="http://www.w3.org/1999/xlink" x="0px" y="0px"
	 viewBox="0 0 750 500" style="enable-background:new 0 0 750 500;" xml:space="preserve">
<g id="BACKGROUND">
	<linearGradient id="SVGID_1_" gradientUnits="userSpaceOnUse" x1="374.9471" y1="303.4294" x2="374.9471" y2="-31.2243">
		<stop  offset="0" style="stop-color:#F5FCFF"/>
		<stop  offset="1" style="stop-color:#99D8FF"/>
	</linearGradient>
	<polygon style="fill:url(#SVGID_1_);" points="749.673,497.02 0,497.02 0,0 749.894,0 	"/>
	
		<linearGradient id="SVGID_00000122000406415367028390000013924300166548253614_" gradientUnits="userSpaceOnUse" x1="376" y1="422.686" x2="376" y2="184.6332">
		<stop  offset="0" style="stop-color:#D8CD3E"/>
		<stop  offset="1" style="stop-color:#FFFFFF;stop-opacity:0.3"/>
	</linearGradient>
	<path style="fill:url(#SVGID_00000122000406415367028390000013924300166548253614_);" d="M751,411.872l-0.336-199.756
		c0,0-62.937,0-86.837-0.797c-23.9-0.797-97.193-23.9-137.823-39.833s-56.563-14.34-56.563-14.34s-16.73,19.917-30.273,15.137
		c-13.543-4.78-40.63-34.257-78.073-39.833c-37.443-5.577-138.62,92.413-155.35,92.413S1,182.639,1,182.639v229.233H751z"/>
</g>
<g id="OBJECTS">
	<g>
		<defs>
			<rect id="SVGID_00000061438808916300310060000014752088822401293190_" width="750" height="500"/>
		</defs>
		<clipPath id="SVGID_00000137118824717850231660000015459643101514982051_">
			<use xlink:href="#SVGID_00000061438808916300310060000014752088822401293190_"  style="overflow:visible;"/>
		</clipPath>
		
			<linearGradient id="SVGID_00000164500072483245303210000016830638692528210329_" gradientUnits="userSpaceOnUse" x1="647.282" y1="285.3646" x2="636.8705" y2="357.9103">
			<stop  offset="0" style="stop-color:#BDBD21"/>
			<stop  offset="1" style="stop-color:#4A833E"/>
		</linearGradient>
		
			<path style="clip-path:url(#SVGID_00000137118824717850231660000015459643101514982051_);fill:url(#SVGID_00000164500072483245303210000016830638692528210329_);" d="
			M534.754,342.974c3.08-2.866,7.613-4.083,11.714-3.143c-1.53-2.082-0.896-5.412,1.292-6.787c2.188-1.375,5.463-0.501,6.675,1.782
			c3.916,0.018,7.829,0.625,11.566,1.795c0.953-3.282,4.441-5.624,7.839-5.265c0.526-1.476,1.052-2.952,1.579-4.427
			c2.303,1.095,4.712,2.214,7.262,2.167c2.55-0.047,5.266-1.649,5.686-4.165c1.833,0.436,3.666,0.871,5.499,1.307
			c-0.962-1.902-0.443-4.434,1.188-5.806c1.632-1.371,4.215-1.446,5.924-0.172c-0.285-1.528,0.05-3.162,0.912-4.454
			c1.879-1.009,2.859,3.057,4.984,3.242c1.347,0.117,2.183-1.358,2.909-2.498c0.726-1.14,2.396-2.166,3.283-1.147
			c-0.792-2.919-0.374-7.446,2.641-7.214c-2.12-2.696-0.257-7.177,3.001-8.251c3.257-1.074,6.968,0.731,8.898,3.567
			c1.039-2.21,3.967-3.301,6.198-2.309s3.384,3.896,2.44,6.148c2.357-0.443,5.521-0.458,6.324,1.802
			c0.456,1.283-0.106,2.913,0.791,3.938c1.383,1.581,4.188-0.251,6.037,0.745c1.411,0.76,1.68,2.873,3.128,3.561
			c1.395,0.663,3.104-0.499,3.6-1.962c0.495-1.463,0.137-3.062-0.224-4.564c1.293,1.393,3.824,0.045,4.322-1.789
			c0.498-1.834-0.219-3.746-0.582-5.612c-0.364-1.866-0.188-4.159,1.432-5.154c2.931-1.801,7.809,2.175,9.747-0.668
			c0.755-1.108,0.404-2.602,0.65-3.92c0.617-3.302,5.019-4.649,8.124-3.368c3.105,1.281,5.144,4.228,7.005,7.025
			c1.999-0.718,2.984-2.96,3.435-5.036c0.451-2.076,0.633-4.315,1.889-6.029c1.491-2.034,3.005-1.368,4.988-1.285
			c2.003,0.084,3.749-1.05,6.03-0.695c1.958,0.305,4.361,0.536,5.532-1.063c0.92-1.255,0.564-3.04,1.152-4.48
			c0.798-1.956,3.059-2.793,5.078-3.417c-0.045-1.398-0.086-2.825,0.317-4.164c0.403-1.339,1.335-2.6,2.668-3.022
			c0.644-0.204,1.372-0.216,1.917-0.616c0.397-0.292,0.634-0.748,0.872-1.18c1.675-3.038,4.25-5.754,7.57-6.759
			c3.321-1.005,7.4,0.111,9.114,3.127c2.057-1.459,4.176-2.948,6.622-3.56c2.226-0.557,4.668-0.322,6.678,0.785
			c2.011,1.107,3.598,3.376,4.688,5.36c0.608,1.108,0.857,2.39,0.812,3.655c-0.045,1.261-1.293,2.691-1.293,3.664v59.54
			c-4.885-0.385-9.766,0.46-14.667,0.46h-89.051c0.517,1.916-1.758,3.245-3.637,3.887c-24.165,8.258-49.191,14.136-74.594,16.895
			c-12.806,1.391-25.701,1.985-38.58,1.682c-4.316-0.102-11.82,1.481-10.23-4.902C525.038,345.699,530.045,341.905,534.754,342.974z
			"/>
		
			<linearGradient id="SVGID_00000116210992768997442780000013163011704055148420_" gradientUnits="userSpaceOnUse" x1="642.1971" y1="452.1816" x2="402.0289" y2="414.4558">
			<stop  offset="0" style="stop-color:#BDBD21"/>
			<stop  offset="1" style="stop-color:#7BB233"/>
		</linearGradient>
		
			<path style="clip-path:url(#SVGID_00000137118824717850231660000015459643101514982051_);fill:url(#SVGID_00000116210992768997442780000013163011704055148420_);" d="
			M750,500l-0.336-179.633c-1.291,0.159-7.042,0.303-28.68-0.207c-34.257-0.797-177.657,35.85-240.593,32.663
			s-61.343-38.24-165.707-44.613c-14.547-0.892-31.166,0.462-48.979,3.473c-61.216,10.277-136.628,39.897-191.455,64.116
			C30.608,395.095,0,410.98,0,410.98V500H750z"/>
		
			<linearGradient id="SVGID_00000002369416165822192500000015238462899701721276_" gradientUnits="userSpaceOnUse" x1="74.2493" y1="368.9254" x2="384.4958" y2="368.9254">
			<stop  offset="0" style="stop-color:#BDBD21"/>
			<stop  offset="1" style="stop-color:#E4D96F;stop-opacity:0.1"/>
		</linearGradient>
		
			<path style="clip-path:url(#SVGID_00000137118824717850231660000015459643101514982051_);fill:url(#SVGID_00000002369416165822192500000015238462899701721276_);" d="
			M381.524,417.29c-2.374,2.581-5.816,3.824-9.178,4.812c-21.303,6.166-44.183,4.652-65.853-0.112
			c-21.669-4.748-42.494-12.635-63.685-19.216c-48.406-15.057-98.914-23.358-149.614-24.585c-6.389-0.159-12.938-0.223-18.945-2.39
			c54.827-24.219,130.239-53.839,191.455-64.116c13.001,0.637,25.971,1.864,38.782,4.222c23.231,4.238,46.079,12.316,65.104,26.274
			c4.334,3.171,8.907,8.19,6.979,13.193c-1.275,3.298-4.892,4.971-8.238,6.118c-16.284,5.545-34.193,6.23-50.843,1.928
			c-21.861-5.64-42.574-19.694-64.944-16.746c-2.262,0.287-4.78,0.956-5.895,2.948c-1.211,2.183-0.08,5.067,1.88,6.612
			c1.944,1.561,4.493,2.087,6.947,2.565c39.419,7.473,81.77,9.018,115.31,31.054c4.684,3.075,9.273,6.692,11.87,11.679
			C385.236,406.503,385.316,413.163,381.524,417.29z"/>
		
			<linearGradient id="SVGID_00000121964059701121982690000010603956035477127102_" gradientUnits="userSpaceOnUse" x1="689.9832" y1="273.6114" x2="690.4831" y2="369.6115">
			<stop  offset="0" style="stop-color:#274F3E"/>
			<stop  offset="1" style="stop-color:#4A833E"/>
		</linearGradient>
		
			<path style="clip-path:url(#SVGID_00000137118824717850231660000015459643101514982051_);fill:url(#SVGID_00000121964059701121982690000010603956035477127102_);" d="
			M759.114,338.476c1.262,0.278,2.584,0.278,3.845-0.001c-1.249-1.744-2.196-3.704-2.784-5.767c3.264,0.856,6.777,0.74,9.978-0.33
			c-7.122-2.298-13.396-7.134-17.431-13.436c2.872,1.837,6.504,2.444,9.817,1.642c-5.612-1.686-10.531-5.575-13.466-10.647
			c1.299-0.187,2.598-0.375,3.898-0.562c-1.152-1.99-2.303-3.98-3.455-5.971c2.016,0.653,4.279,0.503,6.192-0.41
			c-10.066-7.112-16.849-18.689-18.133-30.947c0.082,15.125-6.662,30.471-17.504,41.017c4.325,0.347,8.747-0.644,12.51-2.804
			c-1.302,5.562-4.662,10.618-9.285,13.973c1.018-0.086,2.035-0.172,3.053-0.257c-1.968,1.619-4.192,2.925-6.564,3.855
			c2.966,1.111,6.29,1.242,9.334,0.367c-2.528,6.915-7.238,13.013-13.289,17.207c2.685,0.108,5.386-0.199,7.977-0.909
			c-0.999,3.054-2.773,5.85-5.109,8.056c0.156-0.147,0.453-0.072,0.604,0.031c0.637,2.288-3.88,1.985-5.245,1.607
			c-2.189-0.607-4.161-2.226-4.889-4.416c2.591,0.775,5.466,0.552,7.906-0.614c-5.656-1.639-8.026-8.194-9.577-13.874
			c4.306,1.704,9.272,1.67,13.553-0.093c-1.232,0.099-2.497-0.324-3.423-1.143c1.049-0.144,2.099-0.287,3.148-0.431
			c-3.799-1.664-6.754-5.141-7.785-9.158c1.057-0.154,2.113-0.308,3.17-0.462c-1.504-2.058-3.007-4.116-4.511-6.174
			c1.346,0.052,2.693,0.105,4.039,0.157c-4.273-4.616-7.294-10.38-8.658-16.52c1.977-0.169,3.954-0.339,5.931-0.508
			c-6.739-6.335-12.681-13.517-17.64-21.324c-0.879,8.208-3.491,16.227-7.617,23.377c2.001-0.505,4.002-1.009,6.002-1.514
			c-1.96,8.588-6.94,16.455-13.863,21.902c1.311,0.369,2.786,0.105,3.887-0.697c-1.194,1.203-2.388,2.405-3.582,3.608
			c3.066,0.353,6.185,0.247,9.22-0.315c-1.532,6.872-5.784,13.098-11.628,17.025c1.859,0.465,3.858,0.352,5.653-0.319
			c0.037,1.444-0.541,2.894-1.561,3.918c0.784,0.203,1.631,0.156,2.388-0.131c-3.121,7.519-11.083,12.751-19.223,12.631
			c3.872-1.581,7.368-4.077,10.12-7.226c-3.006,0.432-6.055-0.857-8.393-2.794c-2.339-1.937-4.087-4.476-5.805-6.98
			c1.915,0.496,3.919,0.646,5.887,0.442c-4.443-3.207-7.802-7.887-9.419-13.121c0.904,4.231-1.271,8.933-5.081,10.983
			c1.543-2.002-0.412-4.766-2.25-6.502c1.329-0.023,2.658-0.046,3.987-0.069c-2.095-1.438-3.681-3.604-4.419-6.035
			c1.72,0.378,3.542,0.275,5.209-0.293c-6.902-7.168-10.457-16.83-13.831-26.192c1.878,10.997-2.803,22.863-11.683,29.616
			c1.75,0.116,3.511,0.074,5.254-0.125c-1.889,7.218-7.414,12.826-12.722,18.068c3.47-0.224,6.872-1.416,9.722-3.408
			c-1.114,1.541-2.546,2.85-4.18,3.823c0.847-0.064,1.693-0.128,2.539-0.191c-2.674,2.631-6.028,4.564-9.644,5.559
			c4.245,0.702,8.663,0.339,12.737-1.046c-1.813,7.247-7.055,13.557-13.848,16.668c2.288,0.564,4.721,0.523,6.988-0.117
			c-4.023,5.502-10.787,8.743-17.573,8.887l0.66,6.066c0.414-0.061,0.828-0.138,1.215-0.18c2.455-0.265,4.91-0.534,7.365-0.802
			l140.626-15.303c1.16-0.126,12.271-2.353,12.966-1.411c-1.845-2.506-3.69-5.011-5.536-7.517c2.055,0.896,4.258,1.452,6.493,1.639
			C765.318,355.849,760.49,347.449,759.114,338.476z"/>
		
			<linearGradient id="SVGID_00000152257272011956549940000018046699589622588322_" gradientUnits="userSpaceOnUse" x1="651.4214" y1="299.0724" x2="661.9299" y2="398.4241">
			<stop  offset="0" style="stop-color:#274F3E"/>
			<stop  offset="1" style="stop-color:#4A833E"/>
		</linearGradient>
		
			<path style="clip-path:url(#SVGID_00000137118824717850231660000015459643101514982051_);fill:url(#SVGID_00000152257272011956549940000018046699589622588322_);" d="
			M736.26,381.91c1.84,2.51,3.69,5.02,5.53,7.52c-0.69-0.94-11.8,1.29-12.96,1.41L588.2,406.15c-2.45,0.26-4.91,0.53-7.36,0.8
			c-0.39,0.04-0.8,0.12-1.22,0.18l-0.66-6.07c6.79-0.14,13.55-3.38,17.57-8.89c-2.26,0.64-4.7,0.68-6.98,0.12
			c6.79-3.11,12.03-9.42,13.84-16.67c-4.07,1.39-8.49,1.75-12.73,1.05c3.61-1,6.97-2.93,9.64-5.56c-0.85,0.06-1.69,0.13-2.54,0.19
			c1.64-0.97,3.07-2.28,4.18-3.82c-2.85,1.99-6.25,3.18-9.72,3.41c5.31-5.25,10.83-10.85,12.72-18.07c-1.74,0.2-3.5,0.24-5.25,0.12
			c8.88-6.75,13.56-18.62,11.68-29.61c3.37,9.36,6.93,19.02,13.83,26.19c-1.66,0.57-3.49,0.67-5.21,0.29
			c0.74,2.43,2.33,4.6,4.42,6.04c-1.33,0.02-2.66,0.04-3.98,0.07c1.83,1.73,3.79,4.5,2.25,6.5c3.81-2.05,5.98-6.75,5.08-10.99
			c1.61,5.24,4.97,9.92,9.42,13.13c-1.97,0.2-3.98,0.05-5.89-0.45c1.72,2.51,3.46,5.05,5.8,6.98c0.55,0.46,1.14,0.88,1.76,1.24
			l4.12-7.68c-0.83-0.12-1.64-0.32-2.43-0.59c1.15-0.39,2.3-0.82,3.43-1.28c1.49-0.59,2.96-1.24,4.4-1.94
			c-0.92,0.01-1.85,0.02-2.77,0.03c2.5-1.38,4.58-3.5,5.91-6.02c-1.21,0.44-2.47,0.73-3.75,0.86c-2.15,0.23-4.36,0.03-6.43-0.61
			c2.74-1,5.28-2.52,7.47-4.44c0.72-0.63,1.36-1.47,1.99-2.33c0.08-0.1,0.15-0.2,0.22-0.3c0.53-0.42,1.32-1.31,1.98-2.06
			c0.48-0.56,0.89-1.05,1.05-1.21c-0.23,0.14-0.46,0.31-0.67,0.49l0.05-0.09c-0.94,0.47-2.26,0.51-3.13,0.22
			c1.74-1.9,4.07-2.94,5.35-5.32c-2.38,0.43-4.85,0.39-7.21-0.11c5.94-2.57,10.98-7.18,14.06-12.87c-3.23,1-6.81,0.84-9.94-0.46
			c2.8-1.16,5.3-3.05,7.17-5.43c-2.46,0.79-5.04,1.22-7.63,1.28c3.64-2.4,6.74-5.6,9.07-9.28c2.34-3.7,3.08-7.54,4.52-11.54
			c1.12,1.11,1.35,2.89,2.18,4.22c1,1.62,2.26,3.08,3.7,4.32c2.81,2.42,6.35,4.01,10.05,4.34c-1.28,0.13-2.59,0.05-3.84-0.24
			c0.37,0.89,0.99,1.68,1.77,2.25c-1.29,0.4-2.69,0.45-4.02,0.16c0.89,1.54,1.8,3.11,3.07,4.37c1.27,1.26,2.96,2.19,4.74,2.17
			c-1.62,0.77-3.42,1.16-5.22,1.11c0.58,2.22,2.14,4.08,3.98,5.44c1.85,1.36,3.98,2.26,6.12,3.09c-1.83,1.61-4.35,2.39-6.76,2.11
			c0.03,0,3.15,4.22,3.32,4.52c-0.79,0.55-1.73,0.32-2.65,0.37c1.24,2.13,2.94,4.11,4.41,6.12c-1.06,0.15-2.12,0.31-3.17,0.46
			c1.03,4.02,3.98,7.49,7.78,9.16c-1.05,0.14-2.1,0.28-3.14,0.43c0.92,0.82,2.19,1.24,3.42,1.14c-4.28,1.76-9.25,1.8-13.56,0.09
			c1.56,5.68,3.93,12.24,9.58,13.88c-2.44,1.16-5.31,1.39-7.9,0.61c0.72,2.19,2.7,3.81,4.88,4.42c1.37,0.38,5.89,0.68,5.25-1.61
			c-0.15-0.1-0.45-0.18-0.6-0.03c2.33-2.21,4.11-5,5.1-8.06c-2.59,0.71-5.29,1.02-7.97,0.91c6.05-4.19,10.76-10.29,13.29-17.2
			c-3.05,0.87-6.37,0.74-9.34-0.37c2.38-0.93,4.6-2.24,6.57-3.85c-1.02,0.08-2.04,0.17-3.06,0.25c4.63-3.35,7.99-8.41,9.29-13.97
			c-0.23,0.99-4.8,2.04-5.69,2.26c-1.97,0.47-4.58,1-6.54,0.46c4.61-2.72,8.76-4.72,11.98-9.29c-2.22,1.24-4.96,1.5-7.37,0.7
			c0.82-0.26,1.61-0.62,2.34-1.08c-0.64-0.51-1.27-1.03-1.91-1.54c2.72-1.3,5.03-3.46,6.5-6.09c1.54-2.76,2.15-5.92,2.7-9.04
			c0.9-5.14,1.68-10.31,2.36-15.48c0,0.82,1.34,2.96,1.57,3.81c0.43,1.59,0.65,3.22,0.95,4.84c0.57,3.18,1.44,5.64,3.15,8.34
			c3.63,5.76,7.45,10.86,13.09,14.84c-1.92,0.92-4.18,1.07-6.19,0.41c1.15,1.99,2.3,3.98,3.45,5.97c-1.3,0.19-2.6,0.38-3.9,0.57
			c2.94,5.07,7.86,8.96,13.47,10.64c-3.31,0.81-6.95,0.2-9.82-1.64c4.04,6.3,10.31,11.14,17.43,13.44c-3.2,1.07-6.71,1.18-9.98,0.33
			c0.59,2.06,1.54,4.02,2.79,5.76c-1.26,0.28-2.58,0.28-3.85,0.01c1.38,8.97,6.21,17.37,13.27,23.07
			C740.52,383.37,738.31,382.81,736.26,381.91z"/>
		
			<linearGradient id="SVGID_00000036247291458519804860000016502119904075165629_" gradientUnits="userSpaceOnUse" x1="689.9832" y1="273.6114" x2="690.4832" y2="369.6115" gradientTransform="matrix(-1 0 0 1 760 0)">
			<stop  offset="0" style="stop-color:#7BB233"/>
			<stop  offset="1" style="stop-color:#E4D96F;stop-opacity:0.1"/>
		</linearGradient>
		
			<path style="clip-path:url(#SVGID_00000137118824717850231660000015459643101514982051_);fill:url(#SVGID_00000036247291458519804860000016502119904075165629_);" d="
			M0.886,338.476c-1.262,0.278-2.584,0.278-3.845-0.001c1.249-1.744,2.196-3.704,2.784-5.767c-3.264,0.856-6.777,0.74-9.977-0.33
			c7.122-2.298,13.396-7.134,17.431-13.436c-2.872,1.837-6.504,2.444-9.817,1.642c5.613-1.686,10.531-5.575,13.466-10.647
			c-1.299-0.187-2.598-0.375-3.898-0.562c1.152-1.99,2.303-3.98,3.455-5.971c-2.016,0.653-4.279,0.503-6.192-0.41
			c10.066-7.112,16.849-18.689,18.133-30.947c-0.082,15.125,6.662,30.471,17.504,41.017c-4.325,0.347-8.748-0.644-12.51-2.804
			c1.302,5.562,4.662,10.618,9.285,13.973c-1.018-0.086-2.035-0.172-3.053-0.257c1.968,1.619,4.192,2.925,6.564,3.855
			c-2.966,1.111-6.29,1.242-9.334,0.367c2.528,6.915,7.238,13.013,13.289,17.207c-2.685,0.108-5.386-0.199-7.977-0.909
			c0.999,3.054,2.773,5.85,5.11,8.056c-0.156-0.147-0.453-0.072-0.604,0.031c-0.637,2.288,3.88,1.985,5.245,1.607
			c2.189-0.607,4.161-2.226,4.889-4.416c-2.591,0.775-5.466,0.552-7.907-0.614c5.656-1.639,8.026-8.194,9.577-13.874
			c-4.306,1.704-9.271,1.67-13.553-0.093c1.232,0.099,2.497-0.324,3.423-1.143c-1.049-0.144-2.099-0.287-3.148-0.431
			c3.799-1.664,6.754-5.141,7.785-9.158c-1.057-0.154-2.113-0.308-3.17-0.462c1.504-2.058,3.007-4.116,4.511-6.174
			c-1.346,0.052-2.693,0.105-4.039,0.157c4.273-4.616,7.294-10.38,8.658-16.52c-1.977-0.169-3.954-0.339-5.931-0.508
			c6.739-6.335,12.681-13.517,17.64-21.324c0.879,8.208,3.491,16.227,7.617,23.377c-2.001-0.505-4.002-1.009-6.002-1.514
			c1.96,8.588,6.94,16.455,13.863,21.902c-1.312,0.369-2.786,0.105-3.887-0.697c1.194,1.203,2.388,2.405,3.582,3.608
			c-3.066,0.353-6.185,0.247-9.22-0.315c1.532,6.872,5.784,13.098,11.628,17.025c-1.859,0.465-3.858,0.352-5.653-0.319
			c-0.037,1.444,0.541,2.894,1.561,3.918c-0.784,0.203-1.631,0.156-2.388-0.131c3.121,7.519,11.083,12.751,19.223,12.631
			c-3.872-1.581-7.368-4.077-10.12-7.226c3.006,0.432,6.054-0.857,8.393-2.794c2.339-1.937,4.087-4.476,5.805-6.98
			c-1.915,0.496-3.919,0.646-5.887,0.442c4.443-3.207,7.802-7.887,9.419-13.121c-0.904,4.231,1.271,8.933,5.081,10.983
			c-1.543-2.002,0.412-4.766,2.25-6.502c-1.329-0.023-2.658-0.046-3.987-0.069c2.095-1.438,3.681-3.604,4.419-6.035
			c-1.72,0.378-3.542,0.275-5.209-0.293c6.902-7.168,10.457-16.83,13.831-26.192c-1.878,10.997,2.803,22.863,11.683,29.616
			c-1.75,0.116-3.512,0.074-5.254-0.125c1.889,7.218,7.414,12.826,12.723,18.068c-3.47-0.224-6.872-1.416-9.722-3.408
			c1.114,1.541,2.546,2.85,4.18,3.823c-0.847-0.064-1.693-0.128-2.539-0.191c2.674,2.631,6.028,4.564,9.644,5.559
			c-4.245,0.702-8.663,0.339-12.737-1.046c1.813,7.247,7.056,13.557,13.848,16.668c-2.287,0.564-4.721,0.523-6.988-0.117
			c4.023,5.502,10.787,8.743,17.573,8.887l-0.66,6.066c-0.414-0.061-0.828-0.138-1.215-0.18c-2.455-0.265-4.91-0.534-7.365-0.802
			L1.541,368.842c-1.16-0.126-12.271-2.353-12.966-1.411c1.845-2.506,3.69-5.011,5.536-7.517c-2.056,0.896-4.258,1.452-6.493,1.639
			C-5.319,355.849-0.49,347.449,0.886,338.476z"/>
		
			<linearGradient id="SVGID_00000085941477879862838600000004931009864937104768_" gradientUnits="userSpaceOnUse" x1="110.0909" y1="289.984" x2="102.5909" y2="356.984">
			<stop  offset="0" style="stop-color:#6A702F"/>
			<stop  offset="1" style="stop-color:#4A833E"/>
		</linearGradient>
		
			<path style="clip-path:url(#SVGID_00000137118824717850231660000015459643101514982051_);fill:url(#SVGID_00000085941477879862838600000004931009864937104768_);" d="
			M23.74,381.91c-1.84,2.51-3.69,5.02-5.53,7.52c0.69-0.94,11.8,1.29,12.96,1.41l140.63,15.31c2.45,0.26,4.91,0.53,7.36,0.8
			c0.39,0.04,0.8,0.12,1.22,0.18l0.66-6.07c-6.79-0.14-13.55-3.38-17.57-8.89c2.26,0.64,4.7,0.68,6.98,0.12
			c-6.79-3.11-12.03-9.42-13.84-16.67c4.07,1.39,8.49,1.75,12.73,1.05c-3.61-1-6.97-2.93-9.64-5.56c0.85,0.06,1.69,0.13,2.54,0.19
			c-1.64-0.97-3.07-2.28-4.18-3.82c2.85,1.99,6.25,3.18,9.72,3.41c-5.31-5.25-10.83-10.85-12.72-18.07c1.74,0.2,3.5,0.24,5.25,0.12
			c-8.88-6.75-13.56-18.62-11.68-29.61c-3.37,9.36-6.93,19.02-13.83,26.19c1.66,0.57,3.49,0.67,5.21,0.29
			c-0.74,2.43-2.33,4.6-4.42,6.04c1.33,0.02,2.66,0.04,3.98,0.07c-1.83,1.73-3.79,4.5-2.25,6.5c-3.81-2.05-5.98-6.75-5.08-10.99
			c-1.61,5.24-4.97,9.92-9.42,13.13c1.97,0.2,3.98,0.05,5.89-0.45c-1.72,2.51-3.46,5.05-5.8,6.98c-0.55,0.46-1.14,0.88-1.76,1.24
			l-4.12-7.68c0.83-0.12,1.64-0.32,2.43-0.59c-1.15-0.39-2.3-0.82-3.43-1.28c-1.49-0.59-2.96-1.24-4.4-1.94
			c0.92,0.01,1.85,0.02,2.77,0.03c-2.5-1.38-4.58-3.5-5.91-6.02c1.21,0.44,2.47,0.73,3.75,0.86c2.15,0.23,4.36,0.03,6.43-0.61
			c-2.74-1-5.28-2.52-7.47-4.44c-0.72-0.63-1.36-1.47-1.99-2.33c-0.08-0.1-0.15-0.2-0.22-0.3c-0.53-0.42-1.32-1.31-1.98-2.06
			c-0.48-0.56-0.89-1.05-1.05-1.21c0.23,0.14,0.46,0.31,0.67,0.49l-0.05-0.09c0.94,0.47,2.26,0.51,3.13,0.22
			c-1.74-1.9-4.07-2.94-5.35-5.32c2.38,0.43,4.85,0.39,7.21-0.11c-5.94-2.57-10.98-7.18-14.06-12.87c3.23,1,6.81,0.84,9.94-0.46
			c-2.8-1.16-5.3-3.05-7.17-5.43c2.46,0.79,5.04,1.22,7.63,1.28c-3.64-2.4-6.74-5.6-9.07-9.28c-2.34-3.7-3.08-7.54-4.52-11.54
			c-1.12,1.11-1.35,2.89-2.18,4.22c-1,1.62-2.26,3.08-3.7,4.32c-2.81,2.42-6.35,4.01-10.05,4.34c1.28,0.13,2.59,0.05,3.84-0.24
			c-0.37,0.89-0.99,1.68-1.77,2.25c1.29,0.4,2.69,0.45,4.02,0.16c-0.89,1.54-1.8,3.11-3.07,4.37c-1.27,1.26-2.96,2.19-4.74,2.17
			c1.62,0.77,3.42,1.16,5.22,1.11c-0.58,2.22-2.14,4.08-3.98,5.44c-1.85,1.36-3.98,2.26-6.12,3.09c1.83,1.61,4.35,2.39,6.76,2.11
			c-0.03,0-3.15,4.22-3.32,4.52c0.79,0.55,1.73,0.32,2.65,0.37c-1.24,2.13-2.94,4.11-4.41,6.12c1.06,0.15,2.12,0.31,3.17,0.46
			c-1.03,4.02-3.98,7.49-7.78,9.16c1.05,0.14,2.1,0.28,3.14,0.43c-0.92,0.82-2.19,1.24-3.42,1.14c4.28,1.76,9.25,1.8,13.56,0.09
			c-1.56,5.68-3.93,12.24-9.58,13.88c2.44,1.16,5.31,1.39,7.9,0.61c-0.72,2.19-2.7,3.81-4.88,4.42c-1.37,0.38-5.89,0.68-5.25-1.61
			c0.15-0.1,0.45-0.18,0.6-0.03c-2.33-2.21-4.11-5-5.1-8.06c2.59,0.71,5.29,1.02,7.97,0.91c-6.05-4.19-10.76-10.29-13.29-17.2
			c3.05,0.87,6.37,0.74,9.34-0.37c-2.38-0.93-4.6-2.24-6.57-3.85c1.02,0.08,2.04,0.17,3.06,0.25c-4.63-3.35-7.99-8.41-9.29-13.97
			c0.23,0.99,4.8,2.04,5.69,2.26c1.97,0.47,4.58,1,6.54,0.46c-4.61-2.72-8.76-4.72-11.98-9.29c2.22,1.24,4.96,1.5,7.37,0.7
			c-0.82-0.26-1.61-0.62-2.34-1.08c0.64-0.51,1.27-1.03,1.91-1.54c-2.72-1.3-5.03-3.46-6.5-6.09c-1.54-2.76-2.15-5.92-2.7-9.04
			c-0.9-5.14-1.68-10.31-2.36-15.48c0,0.82-1.34,2.96-1.57,3.81c-0.43,1.59-0.65,3.22-0.95,4.84c-0.57,3.18-1.44,5.64-3.15,8.34
			c-3.63,5.76-7.45,10.86-13.09,14.84c1.92,0.92,4.18,1.07,6.19,0.41c-1.15,1.99-2.3,3.98-3.45,5.97c1.3,0.19,2.6,0.38,3.9,0.57
			c-2.94,5.07-7.86,8.96-13.47,10.64c3.31,0.81,6.95,0.2,9.82-1.64c-4.04,6.3-10.31,11.14-17.43,13.44c3.2,1.07,6.71,1.18,9.98,0.33
			c-0.59,2.06-1.54,4.02-2.79,5.76c1.26,0.28,2.58,0.28,3.85,0.01c-1.38,8.97-6.21,17.37-13.27,23.07
			C19.48,383.37,21.69,382.81,23.74,381.91z"/>
		
			<linearGradient id="SVGID_00000119808782598262883570000016097703821511006132_" gradientUnits="userSpaceOnUse" x1="650.7783" y1="348.196" x2="650.7986" y2="348.3888">
			<stop  offset="0" style="stop-color:#274F3E"/>
			<stop  offset="1" style="stop-color:#4A833E"/>
		</linearGradient>
		
			<path style="clip-path:url(#SVGID_00000137118824717850231660000015459643101514982051_);fill:url(#SVGID_00000119808782598262883570000016097703821511006132_);" d="
			M651.01,348.03c-0.07,0.1-0.14,0.2-0.22,0.3c-0.08-0.01-0.17-0.02-0.25-0.03C650.65,348.3,650.81,348.2,651.01,348.03z"/>
		
			<linearGradient id="SVGID_00000124849394781224179910000003875564758275506605_" gradientUnits="userSpaceOnUse" x1="652.193" y1="346.6684" x2="652.3795" y2="348.4315">
			<stop  offset="0" style="stop-color:#274F3E"/>
			<stop  offset="1" style="stop-color:#4A833E"/>
		</linearGradient>
		
			<path style="clip-path:url(#SVGID_00000137118824717850231660000015459643101514982051_);fill:url(#SVGID_00000124849394781224179910000003875564758275506605_);" d="
			M653.37,345.25l-0.38,0.72c-0.66,0.75-1.45,1.64-1.98,2.06C651.76,347,652.51,345.98,653.37,345.25z"/>
		
			<linearGradient id="SVGID_00000028288440014071281050000009956661712170900129_" gradientUnits="userSpaceOnUse" x1="0" y1="418.5" x2="750.0003" y2="418.5">
			<stop  offset="0" style="stop-color:#BDBD21"/>
			<stop  offset="1" style="stop-color:#4A833E"/>
		</linearGradient>
		
			<path style="clip-path:url(#SVGID_00000137118824717850231660000015459643101514982051_);fill:url(#SVGID_00000028288440014071281050000009956661712170900129_);" d="
			M750,500l-0.211-139.394c0,0-81.385-27.968-233.549,43.866c0,0-113.127,34.391-185.623,12.881
			C258.12,395.844,124.506,354.679,0,337v163H750z"/>
		<g style="clip-path:url(#SVGID_00000137118824717850231660000015459643101514982051_);">
			<defs>
				<path id="SVGID_00000173854019539724260270000017584026795819775657_" d="M749.789,360.606c0,0-80.956-27.94-233.549,43.866
					c0,0-112.215,34.24-184.834,13.152c-10.895-3.164-23.024-6.918-36.219-10.875C220.432,384.332,111.483,352.125,0,337l0.173,163
					H750L749.789,360.606z"/>
			</defs>
			<clipPath id="SVGID_00000152245666379068385920000010184382647967284138_">
				<use xlink:href="#SVGID_00000173854019539724260270000017584026795819775657_"  style="overflow:visible;"/>
			</clipPath>
			
				<linearGradient id="SVGID_00000170261082896375327380000004559910439272846474_" gradientUnits="userSpaceOnUse" x1="518.203" y1="452.0491" x2="387.4327" y2="599.4631">
				<stop  offset="0" style="stop-color:#7BB233"/>
				<stop  offset="1" style="stop-color:#E4D96F;stop-opacity:0.1"/>
			</linearGradient>
			
				<path style="clip-path:url(#SVGID_00000152245666379068385920000010184382647967284138_);fill:url(#SVGID_00000170261082896375327380000004559910439272846474_);" d="
				M598.549,381.454c-45.053,20.244-86.567,47.179-129.694,71.105c-43.112,23.918-87.938,44.877-134.04,62.67
				c16.357,3.807,33.783,7.337,49.697,2.026c4.97-1.659,9.608-4.134,14.217-6.596c72.823-38.902,145.645-77.805,218.468-116.707
				c18.543-9.906,37.176-19.769,56.691-27.745c17.996-7.355,40.779-16.403,60.62-15.51c-0.054,0.288-0.157,0.991-0.195,1.287
				c-11.418,0.928-23.089-0.261-34.628,0.834c-11.583,1.099-23.076,3.045-34.401,5.657
				C642.286,363.778,620.001,371.815,598.549,381.454z"/>
			
				<linearGradient id="SVGID_00000097499056427055510450000004753764066811220885_" gradientUnits="userSpaceOnUse" x1="466.1411" y1="406.3824" x2="335.5649" y2="553.5775">
				<stop  offset="0" style="stop-color:#7BB233"/>
				<stop  offset="1" style="stop-color:#E4D96F;stop-opacity:0.1"/>
			</linearGradient>
			
				<path style="clip-path:url(#SVGID_00000152245666379068385920000010184382647967284138_);fill:url(#SVGID_00000097499056427055510450000004753764066811220885_);" d="
				M430.828,442.978c-8.478,4.587-17.214,8.696-25.836,13.017c-32.637,16.359-63.666,35.792-92.517,57.943
				c2.521,1.274,5.043,2.548,7.564,3.822c7.207-9.602,17.591-16.367,27.753-22.929c14.641-9.455,29.334-18.938,45.101-26.46
				c8.155-3.89,16.567-7.24,24.756-11.06c8.536-3.981,16.816-8.465,25.091-12.945c15.384-8.331,30.768-16.661,46.152-24.992
				c7.884-4.27,15.769-8.539,23.653-12.809c5.134-2.78,19.502-7.44,22.451-12.27c5.356-8.772-15.006-5.537-19.247-3.531
				c-14.351,6.785-27.694,15.911-40.861,24.627C460.447,424.952,446.103,434.714,430.828,442.978z"/>
			
				<linearGradient id="SVGID_00000149364413017519949040000017775738572591720065_" gradientUnits="userSpaceOnUse" x1="427.1081" y1="372.0663" x2="296.4123" y2="519.3961">
				<stop  offset="0" style="stop-color:#7BB233"/>
				<stop  offset="1" style="stop-color:#E4D96F;stop-opacity:0.1"/>
			</linearGradient>
			
				<path style="clip-path:url(#SVGID_00000152245666379068385920000010184382647967284138_);fill:url(#SVGID_00000149364413017519949040000017775738572591720065_);" d="
				M363.233,458.618c-33.853,12.412-68.747,25.571-94.439,50.462c-1.258,1.218-2.606,2.524-4.346,2.836
				c-1.186,0.213-2.4-0.071-3.571-0.353c-5.333-1.284-10.667-2.569-16-3.853c22.21-24.65,54.087-38.704,85.789-49.539
				c31.703-10.835,64.62-19.333,93.618-35.907c2.736-1.564,24.552-15.851,25.856-7.56c0.713,4.529-22.104,15.908-25.861,17.973
				C404.896,443.329,384,451.004,363.233,458.618z"/>
			
				<linearGradient id="SVGID_00000109722217146203833670000013849847149128620447_" gradientUnits="userSpaceOnUse" x1="392.5672" y1="341.7921" x2="261.8562" y2="489.1392">
				<stop  offset="0" style="stop-color:#7BB233"/>
				<stop  offset="1" style="stop-color:#E4D96F;stop-opacity:0.1"/>
			</linearGradient>
			
				<path style="clip-path:url(#SVGID_00000152245666379068385920000010184382647967284138_);fill:url(#SVGID_00000109722217146203833670000013849847149128620447_);" d="
				M329.902,433.667c-29.342,7.294-57.674,18.47-83.984,33.127c-17.273,9.623-34.187,21.259-44.443,37.921
				c-0.709,1.151-1.45,2.387-2.678,2.988c-0.981,0.48-2.127,0.478-3.224,0.466c-4.48-0.049-8.96-0.099-13.441-0.148
				c3.658-10.376,11.337-18.909,19.53-26.406c20.822-19.055,45.974-33.188,72.389-43.675c26.416-10.487,54.153-17.441,82.018-23.324
				c9.212-1.945,21.361-5.965,30.831-4.72c2.126,0.28,6.823,1.494,7.526,4.004c1.045,3.731-3.248,4.093-6.333,5.174
				C369.196,425.69,349.3,428.844,329.902,433.667z"/>
			
				<linearGradient id="SVGID_00000109709390133139316900000015976964257954044057_" gradientUnits="userSpaceOnUse" x1="337.0578" y1="293.2393" x2="206.3277" y2="440.6079">
				<stop  offset="0" style="stop-color:#7BB233"/>
				<stop  offset="1" style="stop-color:#E4D96F;stop-opacity:0.1"/>
			</linearGradient>
			
				<path style="clip-path:url(#SVGID_00000152245666379068385920000010184382647967284138_);fill:url(#SVGID_00000109709390133139316900000015976964257954044057_);" d="
				M258.367,417.767c-32.145,6.502-63.809,16.057-93.039,30.672c-29.231,14.615-56.024,34.427-76.469,59.559
				c-3.85-1.748-7.699-3.496-11.549-5.243c3.143-8.986,9.64-16.48,16.74-22.955c11.753-10.718,25.427-19.203,39.334-27.073
				c37.018-20.949,76.544-38.069,118.127-47.827c9.041-2.122,66.308-17.571,68.821-6.714
				C322.82,408.936,267.073,416.006,258.367,417.767z"/>
			
				<linearGradient id="SVGID_00000163764658391854324610000004015108002480369289_" gradientUnits="userSpaceOnUse" x1="280.6892" y1="244.2752" x2="150.1162" y2="391.4668">
				<stop  offset="0" style="stop-color:#7BB233"/>
				<stop  offset="1" style="stop-color:#E4D96F;stop-opacity:0.1"/>
			</linearGradient>
			
				<path style="clip-path:url(#SVGID_00000152245666379068385920000010184382647967284138_);fill:url(#SVGID_00000163764658391854324610000004015108002480369289_);" d="
				M82.57,438.029c-33.819,19.986-64.535,44.991-90.771,73.898c-4.521-4.155-5.368-11.122-3.544-16.924
				c1.824-5.802,5.867-10.662,10.07-15.126c21.092-22.4,48.205-38.608,76.367-51.578c28.162-12.971,57.643-22.967,86.307-34.838
				c23.303-9.651,47.116-20.765,72.414-20.144c1.957,0.048,3.477,0.318,4.603,1.839c-5.841,5.449-22.253,7.323-30.249,9.854
				c-10.622,3.364-21.198,6.87-31.695,10.592c-20.936,7.424-41.579,15.701-61.551,25.357
				C103.64,426.221,92.961,431.888,82.57,438.029z"/>
			
				<linearGradient id="SVGID_00000127727507874163601260000017841300928027877809_" gradientUnits="userSpaceOnUse" x1="244.6381" y1="213.1606" x2="114.1373" y2="360.2707">
				<stop  offset="0" style="stop-color:#7BB233"/>
				<stop  offset="1" style="stop-color:#E4D96F;stop-opacity:0.1"/>
			</linearGradient>
			
				<path style="clip-path:url(#SVGID_00000152245666379068385920000010184382647967284138_);fill:url(#SVGID_00000127727507874163601260000017841300928027877809_);" d="
				M125.553,379.132c-56.19,25.099-108.307,58.911-153.811,99.788c-0.681-7.524-1.174-15.773,3.306-21.923
				c1.764-2.422,4.174-4.31,6.572-6.139c49.227-37.561,106.114-64.084,162.492-90.304c5.351-2.489,11.033-5.191,17.073-5.365
				c6.465-0.186,10.662,2.348,4.48,6.6C154.392,369.542,138.115,373.52,125.553,379.132z"/>
		</g>
		
			<linearGradient id="SVGID_00000107585015255455703460000014129706858735497862_" gradientUnits="userSpaceOnUse" x1="-1.175998e-04" y1="438.6498" x2="749.9954" y2="438.6498">
			<stop  offset="0" style="stop-color:#6A702F"/>
			<stop  offset="1" style="stop-color:#4A833E"/>
		</linearGradient>
		
			<path style="clip-path:url(#SVGID_00000137118824717850231660000015459643101514982051_);fill:url(#SVGID_00000107585015255455703460000014129706858735497862_);" d="
			M749.995,500l-0.335-120.087c0,0-35.87-15.61-146.58,29.47c-74.19,30.21-192.95,51.23-305.53,65.44
			C176.46,490.105,62.515,497.509,18.813,500H749.995z"/>
		
			<linearGradient id="SVGID_00000178884538745295945940000011344346883841014697_" gradientUnits="userSpaceOnUse" x1="287.4848" y1="446.6711" x2="277.4848" y2="488.0044">
			<stop  offset="0" style="stop-color:#274F3E"/>
			<stop  offset="1" style="stop-color:#4A833E"/>
		</linearGradient>
		
			<path style="clip-path:url(#SVGID_00000137118824717850231660000015459643101514982051_);fill:url(#SVGID_00000178884538745295945940000011344346883841014697_);" d="
			M248.5,460.599c1.027-0.276,2.214,0.258,2.687,1.212c-0.086-0.977-0.173-1.954-0.259-2.93c0.875,0.233,1.582,1.006,1.736,1.899
			c-0.083-0.578-0.311-1.135-0.658-1.605c0.625,0.181,1.171,0.62,1.482,1.192c-0.309-0.904-0.618-1.807-0.928-2.711
			c1.137,0.625,2.22,1.348,3.233,2.158c-0.846-2.056-1.193-4.315-1.001-6.53c0.076-0.875,0.299-1.845,1.039-2.318
			c1.029-0.657,2.398,0.035,3.257,0.901c1.216,1.227,2.043,2.834,2.335,4.537c-0.335-0.67-0.309-1.624,0.326-2.022
			c0.635-0.398,1.663,0.44,1.204,1.032c0.47-0.217,0.94-0.435,1.41-0.652c0.253,0.357,0.39,0.796,0.385,1.233
			c0.592-1.091,2.62-0.678,2.738,0.558c0.427-0.043,0.855-0.085,1.282-0.128c0.325,0.65,0.528,1.362,0.594,2.086
			c0.703-0.935,1.454-1.909,2.527-2.375c1.073-0.465,2.559-0.199,3.045,0.865c0.048-0.753-0.411-1.43-0.788-2.083
			c-0.377-0.654-0.689-1.466-0.352-2.14c0.337-0.675,1.601-0.71,1.693,0.039c-0.166-1.639,0.066-3.317,0.671-4.849
			c0.409-1.037,1.082-2.086,2.147-2.413c1.065-0.327,2.463,0.526,2.267,1.623c-0.079-3.215-0.02-6.803,2.214-9.117
			c1.056-1.093,2.508-1.762,4.009-1.998c0.616-0.097,1.271-0.12,1.837,0.142c0.827,0.382,1.278,1.275,1.598,2.128
			c0.941,2.508,1.279,5.241,0.978,7.903c0.265-0.568,0.529-1.135,0.794-1.703c0.098-0.21,0.218-0.441,0.439-0.514
			c0.331-0.109,0.645,0.2,0.833,0.493c0.618,0.96,0.932,2.113,0.886,3.253c0.667-0.414,1.396-0.844,2.179-0.78
			c0.783,0.064,1.534,0.889,1.213,1.605c0.344-0.108,0.689-0.216,1.033-0.324c0.272,1.186,0.092,2.471-0.497,3.536
			c0.653-0.119,1.306-0.239,1.96-0.358c0.15,1.656-0.109,3.348-0.748,4.883c0.623-0.308,1.247-0.617,1.87-0.925
			c0.315,0.79-0.011,1.784-0.732,2.234c0.944-1.918,2.385-3.588,4.144-4.802c0.188-0.13,0.408-0.261,0.632-0.213
			c0.255,0.055,0.404,0.315,0.508,0.554c0.837,1.914,0.856,4.171,0.05,6.098c1.273-2.189,3.601-3.732,6.114-4.051
			c0.153,2.269-0.776,4.587-2.453,6.122c1.383-0.882,3.073-1.271,4.703-1.085c0.474,4.055-2.881,8.156-6.95,8.496
			c0.72-0.215,1.57,0.278,1.742,1.01c0.171,0.732-0.371,1.551-1.112,1.679c1.042,0.267,1.598,1.666,1.023,2.576
			c1.213-0.255,2.425-0.511,3.638-0.766c0.382,1.083,0.229,2.341-0.4,3.302c0.576-0.27,1.202-0.546,1.827-0.427
			c0.625,0.119,1.165,0.833,0.863,1.393c-0.118,0.219-0.334,0.365-0.541,0.503c-1.19,0.79-2.379,1.579-3.569,2.369
			c2.429,0.111,4.111,3.269,2.849,5.347c-0.735,1.21-2.158,1.876-3.567,2.013c-1.409,0.137-2.821-0.186-4.183-0.572
			c-4.541-1.284-8.846-3.27-13.244-4.98c-6.933-2.696-14.104-4.704-21.256-6.72c-3.55-1.001-7.101-2.001-10.624-3.092
			c-1.76-0.545-3.514-1.11-5.257-1.709c-1.317-0.453-3.786-0.85-4.72-1.953C250.082,468.049,248.603,460.572,248.5,460.599z"/>
		
			<linearGradient id="SVGID_00000177477275061767637010000008952674069980394916_" gradientUnits="userSpaceOnUse" x1="534.6717" y1="423.5228" x2="560.6716" y2="513.0227">
			<stop  offset="0" style="stop-color:#BDBD21;stop-opacity:0.3"/>
			<stop  offset="1" style="stop-color:#4A833E"/>
		</linearGradient>
		
			<path style="clip-path:url(#SVGID_00000137118824717850231660000015459643101514982051_);fill:url(#SVGID_00000177477275061767637010000008952674069980394916_);" d="
			M747.219,426.507c1.2-8.66-0.544-17.702-4.879-25.294c1.656,4.807,2.309,9.956,1.905,15.024c-2.188-2.352-3.703-5.324-4.32-8.477
			c-0.878,2.482-1.385,5.096-1.497,7.726c-1.101-3.873-1.264-8.009-0.471-11.957c-1.963,2.979-3.323,6.353-3.974,9.86
			c-1.853-5.196-0.931-11.294,2.377-15.71c-5.496,6.472-6.37,15.56-7.002,24.027c-0.524-6.201-2.092-12.313-4.618-18.001
			c1.585,6.018,2.351,12.25,2.269,18.473c-1.116-4.413-1.846-8.922-2.182-13.461c-0.819,4.437-1.319,8.932-1.494,13.441
			c-1.636-4.68-2.05-9.78-1.19-14.662c-2.945,4.669-4.708,10.076-5.082,15.583c-1.97-2.347-1.935-5.746-1.578-8.789
			c0.457-3.889,1.273-7.735,2.436-11.474c-2.384,2.398-4.057,5.494-4.759,8.802c-0.641-3.818-1.282-7.637-1.923-11.455
			c0.325,3.234,0.099,6.523-0.663,9.683c-1.683-3.59-3.622-7.061-5.797-10.377c3.711,6.428,5.02,14.207,3.619,21.496
			c-1.571-4.508-2.514-9.236-2.791-14.002c-0.587,4.06-1.174,8.121-1.76,12.181c-1.486-3.961-1.702-8.387-0.606-12.473
			c-0.442,2.251-1.274,4.425-2.448,6.396c-0.541-1.196-1.082-2.393-1.623-3.589c-0.101,1.297-0.202,2.594-0.303,3.891
			c-1.324-2.658-2.648-5.315-3.972-7.973c1.535,3.716,2.136,7.813,1.734,11.813c-1.385-1.959-2.771-3.918-4.156-5.876
			c0.464,1.593,0.708,3.249,0.723,4.908c-1.903-3.925-2.62-8.416-2.036-12.739c-2.97,4.468-4.084,10.13-3.026,15.39
			c-1.391-2.266-2.572-4.662-3.522-7.146c0.207,1.978,0.414,3.957,0.621,5.935c-0.701-0.986-1.402-1.973-2.103-2.959
			c0.023,1.014,0.046,2.029,0.069,3.043c-1.579-2.776-2.354-6.002-2.208-9.192c-1.229,2.718-2.059,5.616-2.457,8.573
			c-2.167-3.148-4.335-6.295-6.502-9.443c1.474,2.866,2.231,6.097,2.181,9.319c-2.039-4.237-6.032-7.484-10.596-8.615
			c3.627,2.357,6.295,6.147,7.29,10.357c-2.258-1.78-4.952-3.003-7.779-3.531c0.668,1.412,1.074,2.948,1.19,4.505
			c-2.21-2.033-3.928-4.597-4.967-7.414c-0.776,2.849-1.551,5.698-2.327,8.548c-1.104-1.734-1.946-3.634-2.491-5.617
			c-0.868,1.829-1.737,3.659-2.605,5.488c-0.256-0.911-0.512-1.822-0.767-2.734c0.325,0.182,0.048,0.749-0.324,0.762
			c-0.372,0.013-0.673-0.285-0.925-0.56c-1.01-1.108-2.021-2.216-3.031-3.324c0.846,1.56,1.337,3.31,1.427,5.082
			c-1.726-2.619-4.301-4.669-7.24-5.765c1.863,2.532,2.815,5.721,2.646,8.86c-2.158-2.951-4.78-5.561-7.739-7.708
			c-0.304,2.338-0.856,4.645-1.644,6.867c-1.051-0.969-1.859-2.199-2.33-3.549c-0.595,1.155-1.19,2.309-1.784,3.464
			c-0.975-3.084-2.368-6.036-4.13-8.749c1.028,2.966,1.409,6.154,1.11,9.278c-2.721-3.67-7.135-5.836-11.573-6.916
			c1.524,2.862,2.88,5.812,4.06,8.832c-1.006-0.275-1.902-0.937-2.458-1.819c0.051,1.192,0.103,2.384,0.154,3.577
			c-3.145-2.5-5.235-6.286-5.675-10.279c-0.279,3.865-0.057,7.766,0.66,11.574c-0.53,0.154-0.969-0.418-1.208-0.915
			c-0.768-1.595-1.321-3.293-1.641-5.035c-0.094,2.659,0.072,5.328,0.494,7.955c-1.519-3.512-3.421-6.859-5.661-9.961
			c1.658,3.427,2.787,7.109,3.338,10.875c-1.518-1.852-3.036-3.703-4.554-5.555c1.113,1.986,1.776,4.221,1.926,6.492
			c-1.754-3.303-2.74-7.011-2.857-10.749c-0.581,3.433-0.596,6.96-0.045,10.398c-1.231-2.003-2.461-4.006-3.692-6.009
			c0.895,2.064,1.469,4.266,1.695,6.504c-0.792-0.871-1.585-1.742-2.378-2.613c0.508,1.015,0.466,2.285-0.107,3.264
			c-1.015-2.341-1.567-4.881-1.615-7.431c-0.571,2.71-0.687,5.515-0.342,8.263c-1.005-0.807-1.754-1.929-2.112-3.168
			c0.017,1.183,0.034,2.366,0.051,3.549c-1.258-1.895-2.516-3.79-3.773-5.685c1.379,2.086,2.229,4.52,2.449,7.011
			c-0.928-1.053-1.856-2.107-2.785-3.16c0.244,1.033,0.149,2.143-0.265,3.119c-1.261-1.858-1.741-4.228-1.304-6.431
			c-2.22,1.85-2.367,5.148-2.337,8.037c-0.691-1.062-1.383-2.124-2.074-3.185c0.471,1.03,0.727,2.158,0.745,3.29
			c-1.27-1.811-2.139-4.068-1.964-6.273c-1.144,1.074-1.245,2.826-1.269,4.395c-0.466-1.448-1.25-2.792-2.282-3.909
			c0.264,2.375,1.572,4.599,1.474,6.987c-0.691-2.116-2.179-3.962-4.102-5.085c0.864,0.703,1.147,1.779,1.413,2.86
			c0.266,1.082,0.272,2.211,0.2,3.323c-0.905-1.017-1.668-2.16-2.262-3.386c-0.09,1.673-0.122,3.349-0.096,5.025
			c-0.598-1.846-1.828-3.478-3.328-4.708c0.756,1.222,1.223,2.622,1.351,4.053c-0.292-0.351-0.585-0.703-0.877-1.054
			c0.127,0.251,0.168,0.545,0.115,0.822c-1.331-1.411-1.622-3.481-1.849-5.408c-0.267,1.942-0.16,3.935,0.315,5.837
			c-0.234-0.238-0.468-0.477-0.702-0.715c-0.001,0.491-0.002,0.982-0.003,1.473c-1.242-1.321-2.484-2.643-3.726-3.964
			c0.892,1.139,1.811,2.337,2.086,3.757c-0.626-0.453-1.21-0.962-1.744-1.52c0.203,0.456,0.405,0.911,0.607,1.367
			c-1.121-1.612-1.91-3.454-2.304-5.377c-0.555,2.182-0.514,4.512,0.117,6.673c-0.326-0.254-0.618-0.553-0.865-0.884
			c0.076,0.429,0.152,0.859,0.228,1.288c-0.955-1.384-1.875-2.792-2.758-4.223c-0.008,1.564,0.114,3.128,0.366,4.671
			c-1.123-0.879-2.246-1.757-3.369-2.636c1.457,1.442,3.017,3.125,2.984,5.175c-0.961-1.799-2.365-3.492-3.869-4.871
			c0.466,1.301,0.727,2.676,0.77,4.058c-0.38-0.421-0.759-0.841-1.139-1.262c-0.118,0.882-0.236,1.763-0.353,2.645
			c-1.197-1.676-1.824-3.751-1.757-5.81c-0.747,1.845-1.117,3.841-1.081,5.83c-0.231-0.259-0.461-0.517-0.691-0.775
			c0.127,0.634,0.254,1.268,0.381,1.902c-0.225-0.263-0.489-0.493-0.779-0.682c0.054,0.249,0.107,0.497,0.161,0.746
			c-0.476-0.254-0.953-0.508-1.429-0.762c0.14,0.318,0.28,0.637,0.42,0.955c-0.901-0.975-1.577-2.158-1.961-3.43
			c0.174,1.09,0.349,2.18,0.524,3.27c-0.172-0.098-0.343-0.197-0.515-0.295c0.109,0.527,0.218,1.053,0.327,1.58
			c-0.214-0.183-0.427-0.367-0.641-0.55c0.027,0.189,0.054,0.377,0.081,0.566c-0.231-0.035-0.452-0.138-0.627-0.293
			c0.004,0.351-0.146,0.702-0.403,0.941c-0.925-1.449-1.397-3.182-1.335-4.899c-0.908,1.672-1.096,3.72-0.507,5.529
			c-0.255-0.244-0.51-0.488-0.765-0.731c0.059,0.325,0.117,0.65,0.176,0.975c-0.341-0.193-0.683-0.386-1.025-0.579
			c0.212,0.138,0.341,0.396,0.324,0.648c-0.706-0.228-1.023-1.054-1.094-1.793c-0.07-0.739,0.004-1.519-0.314-2.19
			c-0.249,1.307-0.31,2.649-0.18,3.973c-0.237-0.296-0.474-0.591-0.71-0.887c0.077,0.326,0.155,0.652,0.232,0.979
			c-1.305-1.787-3.126-3.192-5.185-4c1.796,1.183,3.087,3.108,3.5,5.219c-0.868-0.443-1.555-1.228-1.879-2.147
			c0.168,0.522,0.301,1.056,0.397,1.596c-0.695-0.908-1.168-1.986-1.365-3.112c-0.232,1.472-0.369,2.959-0.411,4.448
			c-0.961-0.728-1.412-1.961-1.546-3.159c-0.134-1.198,0-2.409-0.04-3.614c-0.853,1.881-0.965,4.006-0.979,6.071
			c-0.005,0.733,0.042,1.562,0.593,2.045c-1.038-0.371-2.128-0.932-2.873-1.744c-0.287,0.869-0.481,1.768-0.578,2.678
			c-0.169-0.121-0.339-0.241-0.508-0.362c-0.134,0.525-0.342,1.03-0.616,1.497c-0.258-0.135-0.488-0.321-0.673-0.546
			c0.041,0.317,0.014,0.643-0.078,0.95c-1.157-1.197-1.727-2.937-1.502-4.586c-0.704,1.803-1.044,3.749-0.992,5.684
			c-0.463-0.191-0.891-0.465-1.258-0.805c0.094,0.496,0.189,0.991,0.283,1.487c-0.197-0.061-0.393-0.123-0.59-0.184
			c-0.054,0.235-0.085,0.475-0.09,0.717c-0.76-1.007-1.69-1.885-2.74-2.585c0.832,1.137,1.316,2.525,1.37,3.932
			c-0.957-0.806-1.868-1.667-2.726-2.578c0.255,0.655,0.391,1.356,0.4,2.059c-0.069-0.083-0.138-0.166-0.207-0.249
			c-0.028,0.249-0.055,0.498-0.083,0.747c-1.35-1.057-1.692-2.925-1.939-4.622c-0.458,1.804-0.663,3.672-0.605,5.532
			c-0.752-0.753-1.388-1.621-1.88-2.565c0.147,1.19,0.435,2.362,0.857,3.484c-0.245-0.302-0.557-0.548-0.907-0.716
			c0.09,0.248,0.181,0.496,0.271,0.744c-1.072-1.648-2.634-2.973-4.435-3.761c1.635,1.542,2.87,3.504,3.553,5.645
			c-0.649-0.477-1.257-1.007-1.818-1.585c0.182,0.335,0.283,0.714,0.291,1.095c-0.789-1.082-1.387-2.302-1.758-3.589
			c-0.372,1.458-0.473,2.985-0.296,4.479c-1.258-1.575-2.073-3.5-2.328-5.5c-0.281,2.162-0.56,4.383-0.046,6.502
			c-1.613-1.897-3.517-3.866-5.533-5.329c0.342,1.272,1.58,2.082,2.231,3.227c0.456,0.802,0.607,1.737,0.749,2.648
			c-0.325-0.695-0.772-1.325-1.333-1.848c0.17,0.607,0.34,1.214,0.509,1.82c-0.131-0.293-0.325-0.559-0.564-0.773
			c-0.16,0.439-0.32,0.878-0.48,1.317c-0.143-0.13-0.285-0.261-0.428-0.392c-0.095,0.287-0.19,0.574-0.285,0.86
			c-1.245-1.281-1.876-3.134-1.674-4.908c-0.71,1.841-0.787,3.919-0.217,5.807c-0.653-0.98-1.305-1.96-1.958-2.94
			c0.69,1.396,1.114,2.922,1.243,4.473c-1.013-1.432-2.308-2.662-3.789-3.601c1.186,1.162,2.045,2.654,2.454,4.263
			c-0.734-0.398-1.381-0.956-1.883-1.622c0.11,0.428,0.22,0.856,0.331,1.284c-1.059-1.373-1.509-3.198-1.21-4.906
			c-0.697,1.934-1.048,3.992-1.033,6.047c-0.744-0.645-1.489-1.29-2.233-1.934c0.021,0.697,0.042,1.393,0.062,2.09
			c-0.718-1.048-1.693-1.919-2.815-2.515c1.048,1.188,1.781,2.653,2.103,4.204c-0.532-0.507-1.064-1.013-1.596-1.519
			c0.124,0.398,0.16,0.823,0.103,1.236c-0.989-1.168-1.681-2.584-1.995-4.082c-0.055,1.36,0.145,2.73,0.587,4.018
			c-0.263-0.13-0.525-0.26-0.787-0.389c-0.006,0.445-0.011,0.891-0.016,1.336c-0.281-0.248-0.563-0.496-0.844-0.743
			c0.009,0.27,0.017,0.54,0.025,0.81c-1.452-1.467-3.238-2.603-5.182-3.295c1.648,1.296,2.835,3.168,3.302,5.213
			c-0.464-0.47-0.928-0.94-1.392-1.411c-0.066,0.416-0.03,0.847,0.106,1.245c-0.324-0.371-0.649-0.742-0.973-1.113
			c0.076,0.398,0.152,0.796,0.229,1.195c-1.365-1.754-1.932-4.105-1.518-6.289c-0.83,2.509-1.039,5.22-0.605,7.827
			c-0.802-1.285-1.603-2.57-2.405-3.855c0.556,1.393,0.975,2.842,1.246,4.317c-0.922-1.449-2.128-2.715-3.53-3.707
			c0.838,0.984,1.458,2.152,1.802,3.398c-0.506-0.318-1.012-0.635-1.517-0.953c0.066,0.774,0.132,1.547,0.197,2.321
			c-1.136-1.489-2.272-2.979-3.408-4.468c0.844,1.622,1.41,3.389,1.666,5.199c-0.734-0.423-1.42-0.929-2.041-1.505
			c0.037,0.472,0.074,0.945,0.111,1.417c-0.202-0.333-0.467-0.629-0.777-0.866c0.011,0.382,0.021,0.764,0.032,1.147
			c-1.45-1.186-1.375-3.385-1.172-5.247c-0.891,2.179-1.422,4.504-1.564,6.854c-0.352-0.555-0.704-1.109-1.056-1.664
			c-0.049,0.429-0.099,0.858-0.148,1.287c-0.45-0.555-0.9-1.111-1.35-1.666c0.049,0.429,0.098,0.858,0.146,1.287
			c-0.949-1.289-1.899-2.577-2.848-3.866c0.451,1.897,0.901,3.794,1.352,5.692c-0.353-0.277-0.705-0.555-1.058-0.832
			c-0.158,0.444-0.316,0.888-0.474,1.333c-0.283-0.269-0.567-0.538-0.85-0.806c-0.201,0.188-0.36,0.419-0.463,0.674
			c-0.616-1.285-0.909-2.724-0.845-4.147c-1.019,1.792-1.7,3.776-1.994,5.817c-0.874-1.351-1.48-2.875-1.773-4.457
			c-0.203,1.388-0.407,2.777-0.61,4.165c-0.237-0.399-0.532-0.763-0.874-1.076c0.034,0.51,0.068,1.021,0.102,1.531
			c-0.716-0.496-1.433-0.992-2.149-1.488c-0.237,0.177-0.32,0.533-0.185,0.796c-0.341,0.901-0.993,1.582-1.618,2.315
			c-0.383-1.02-0.896-1.992-1.522-2.884c0.33,1.2,0.436,2.461,0.311,3.7c-1.423-0.985-1.544-3.006-1.524-4.737
			c-1.068,1.291-1.77,2.881-2.006,4.54c-0.337-0.712-0.538-1.487-0.588-2.273c-0.172,0.541-0.344,1.082-0.516,1.622
			c-0.501-1.119-1.202-2.148-2.06-3.024c0.156,1.388,0.185,2.791,0.085,4.184c-0.148-0.157-0.296-0.313-0.445-0.47
			c-0.143,0.355-0.363,0.679-0.639,0.944c-0.215-0.202-0.431-0.403-0.646-0.605c-0.337-1.945-0.219-3.967,0.341-5.859
			c-1.432,1.863-2.461,4.034-3,6.321c-0.349-0.687-0.749-1.348-1.195-1.977c-0.228,0.546-0.456,1.091-0.685,1.637
			c-0.231-0.232-0.463-0.464-0.694-0.696c-0.342,0.769-1.131,1.318-1.971,1.372c-0.418-1.304-1.374-2.549-2.172-3.661
			c0.064,1.294-0.009,2.594-0.217,3.873c-0.908-0.702-1.817-1.404-2.725-2.106c-0.066,0.439-0.133,0.878-0.199,1.316
			c-0.68-0.325-1.359-0.65-2.039-0.975c-0.016,0.615-0.032,1.23-0.048,1.845c-0.663-0.65-1.413-1.211-2.223-1.664
			c-0.002,0.787-0.004,1.574-0.006,2.361c-0.75-1.87-0.951-3.958-0.571-5.937c-1.168,1.966-1.898,4.189-2.124,6.464
			c-0.377-0.819-0.855-1.591-1.421-2.293c-0.195,1.279-0.389,2.558-0.584,3.837c-0.374-0.459-0.747-0.919-1.121-1.379
			c-0.092,0.42-0.185,0.839-0.277,1.258c-0.943-1.971-1.144-4.286-0.555-6.389c-1.369,2.074-2.082,4.574-2.013,7.058
			c-0.602-1.568-1.542-3.006-2.739-4.185c0.533,1.545,0.942,3.133,1.221,4.744c-1.406-1.697-2.812-3.395-4.217-5.092
			c0.137,1.985,0.647,3.944,1.495,5.744c-1.364-0.587-2.181-2.059-2.391-3.53c-0.21-1.47,0.084-2.961,0.378-4.417
			c-1.546,1.879-2.356,4.349-2.223,6.779c-0.543-1.324-1.087-2.648-1.63-3.972c-0.011,0.871-0.021,1.742-0.032,2.613
			c-0.814-0.769-1.628-1.537-2.442-2.306c0.993,1.657,1.724,3.47,2.157,5.353c-0.861-1.505-2.049-2.823-3.457-3.835
			c-0.024,0.526-0.047,1.053-0.071,1.579c-0.589-1.815-0.841-3.739-0.739-5.645c-0.954,2.517-1.646,5.132-2.064,7.791
			c-0.588-0.998-1.175-1.996-1.763-2.995c0.009,0.697,0.017,1.393,0.026,2.09c-0.749-1.588-1.95-2.961-3.425-3.914
			c0.076,1.458,0.151,2.915,0.227,4.373c-0.434-0.379-0.809-0.824-1.108-1.316c-0.174,1.09-0.527,2.151-1.039,3.129
			c-0.5-0.556-1-1.112-1.499-1.668c-0.203,0.467-0.407,0.935-0.611,1.402c-0.566-1.057-1.133-2.115-1.699-3.172
			c-0.302,1.066-0.926,2.039-1.77,2.757c-0.596-0.646-1.112-1.367-1.531-2.14c-0.066,0.722-0.287,1.429-0.645,2.059
			c-0.954-1.375-1.857-2.785-2.708-4.226c-0.395,2.069-1.311,4.037-2.639,5.672c-0.744-0.647-1.487-1.293-2.231-1.939
			c0.097,0.641-0.576,1.157-1.216,1.26c-0.64,0.103-1.303-0.042-1.941,0.074c-0.751,0.136-1.386,0.616-2.037,1.015
			c-1.975,1.21-4.351,1.753-6.655,1.522c-6.242,0.81-12.511,1.534-18.787,2.005c-3.826,0.288-7.732,0.463-11.326,1.808
			c-0.365,0.137-0.671,0.079-0.722,0.466h408.393L750,426.75L747.219,426.507z"/>
		
			<linearGradient id="SVGID_00000036227046745227033170000005093737829999340419_" gradientUnits="userSpaceOnUse" x1="29.2199" y1="409.8863" x2="27.2199" y2="468.5529">
			<stop  offset="0" style="stop-color:#274F3E"/>
			<stop  offset="1" style="stop-color:#4A833E"/>
		</linearGradient>
		
			<path style="clip-path:url(#SVGID_00000137118824717850231660000015459643101514982051_);fill:url(#SVGID_00000036227046745227033170000005093737829999340419_);" d="
			M7.232,394.2c0.509-0.299,1.14-0.579,1.665-0.309c0.377,0.194,0.572,0.616,0.722,1.013c1.211,3.212,1.24,6.854,0.083,10.085
			c0.41-1.172,2.026-1.587,3.12-1c1.093,0.587,1.658,1.88,1.71,3.12c0.052,1.24-0.323,2.453-0.694,3.638
			c0.17-0.536,0.786-0.887,1.334-0.76c0.485,2.406,0.514,4.902,0.085,7.318c1.107-0.422,2.38,0.357,2.922,1.409
			c0.543,1.053,0.542,2.292,0.53,3.476c0.734-0.705,1.746-1.239,2.745-1.043c0.999,0.195,1.793,1.38,1.309,2.275
			c0.417-0.735,1.438-1.052,2.198-0.683c0.76,0.369,1.143,1.366,0.824,2.149c0.213-0.704,0.427-1.407,0.64-2.111
			c1.04,0.722,1.932,1.656,2.606,2.727c-0.157-0.665,0.853-1.13,1.401-0.722c0.548,0.408,0.593,1.239,0.342,1.875
			c0.328-0.43,0.994-0.553,1.454-0.269c0.46,0.284,0.649,0.935,0.411,1.421c-0.12-1.001-0.236-2.046,0.11-2.993
			c0.346-0.947,1.309-1.751,2.299-1.561c1.418,0.272,1.781,2.105,1.832,3.548c-0.464-2.469-0.854-4.952-1.168-7.444
			c-0.036-0.285-0.054-0.619,0.161-0.81c0.186-0.166,0.468-0.148,0.716-0.12c1.384,0.158,2.794,0.348,4.046,0.96
			c1.251,0.613,2.336,1.729,2.554,3.105c-0.185-1.996,0.339-4.051,1.457-5.715c0.816-1.214,2.26-2.295,3.643-1.822
			c1.07,0.366,1.648,1.514,1.987,2.593c0.695,2.214,0.85,4.596,0.445,6.882c1.139-1.811,3.446-2.804,5.544-2.386
			c0.433,0.086,0.882,0.244,1.154,0.592c0.308,0.392,0.325,0.932,0.313,1.43c-0.047,1.931-0.329,3.855-0.838,5.718
			c1.096-0.751,2.495-1.045,3.801-0.797c-0.075,0.647-0.314,1.274-0.688,1.807c0.805-0.221,1.457,0.874,1.176,1.661
			c-0.659,1.844-3.08,1.645-4.629,1.945c-2.383,0.462-4.76,0.956-7.13,1.486c-4.739,1.06-9.446,2.256-14.116,3.587
			c-9.339,2.663-18.525,5.863-27.495,9.583c-3.14,1.302-6.253,2.667-9.337,4.096c-2.847-9.225-2.692-19.07-2.511-28.722
			C-3.838,413.833-3.005,400.22,7.232,394.2z"/>
		
			<linearGradient id="SVGID_00000048477116265637945350000015141466735278294945_" gradientUnits="userSpaceOnUse" x1="212.086" y1="524.069" x2="212.086" y2="448.2573">
			<stop  offset="0" style="stop-color:#274F3E"/>
			<stop  offset="1" style="stop-color:#4A833E"/>
		</linearGradient>
		
			<path style="clip-path:url(#SVGID_00000137118824717850231660000015459643101514982051_);fill:url(#SVGID_00000048477116265637945350000015141466735278294945_);" d="
			M424.172,500c-13.247-0.824-26.016-2.03-36.992-3.777c-22.79-3.62-54.27-11.67-89.63-21.4c-42.5-11.69-90.59-25.81-135.83-37.55
			C78.87,415.763,0,446.833,0,446.833V500H424.172z"/>
		<g style="clip-path:url(#SVGID_00000137118824717850231660000015459643101514982051_);">
			
				<linearGradient id="SVGID_00000142885034249679652880000011867901683598474648_" gradientUnits="userSpaceOnUse" x1="109.1856" y1="436.4736" x2="109.1856" y2="506.6935">
				<stop  offset="0" style="stop-color:#274F3E"/>
				<stop  offset="1" style="stop-color:#4A833E"/>
			</linearGradient>
			<path style="fill:url(#SVGID_00000142885034249679652880000011867901683598474648_);" d="M113.314,500
				c-3.425-12.081-1.449-36.725,0.304-60.85c-6.199,19.876-10.526,39.972-8.249,60.85H113.314z"/>
			
				<linearGradient id="SVGID_00000109709103349288655360000011808531960828779921_" gradientUnits="userSpaceOnUse" x1="690.4868" y1="436.4737" x2="690.4868" y2="506.6934">
				<stop  offset="0" style="stop-color:#274F3E"/>
				<stop  offset="1" style="stop-color:#4A833E"/>
			</linearGradient>
			<path style="fill:url(#SVGID_00000109709103349288655360000011808531960828779921_);" d="M695.522,500
				c-4.207-14.472-1.817-44.292,0.304-73.485c-7.486,24.001-12.706,48.269-9.914,73.485H695.522z"/>
			
				<linearGradient id="SVGID_00000013905136348389403360000016229777740686661272_" gradientUnits="userSpaceOnUse" x1="95.3853" y1="436.4736" x2="95.3853" y2="506.6932">
				<stop  offset="0" style="stop-color:#274F3E"/>
				<stop  offset="1" style="stop-color:#4A833E"/>
			</linearGradient>
			<path style="fill:url(#SVGID_00000013905136348389403360000016229777740686661272_);" d="M96.911,500h5.841
				c-0.125-8.388-8.413-20.641-10.635-26.582c-2.312-6.18-1.503-21.551-1.503-21.551c-4.277,12.756-2.774,22.501,0.925,30.108
				C94.58,488.228,96.37,497.056,96.911,500z"/>
			
				<linearGradient id="SVGID_00000052083904615090382750000000607408378889345965_" gradientUnits="userSpaceOnUse" x1="24.2777" y1="436.4736" x2="24.2777" y2="506.6932">
				<stop  offset="0" style="stop-color:#274F3E"/>
				<stop  offset="1" style="stop-color:#4A833E"/>
			</linearGradient>
			<path style="fill:url(#SVGID_00000052083904615090382750000000607408378889345965_);" d="M9.802,500
				c5.032-25.245,17.099-41.833,38.581-46.837C10.211,455.264,1.424,493.319,0.173,500H9.802z"/>
			
				<linearGradient id="SVGID_00000129921791357545195490000008455090817189642400_" gradientUnits="userSpaceOnUse" x1="41.925" y1="436.4736" x2="41.925" y2="506.6935">
				<stop  offset="0" style="stop-color:#274F3E"/>
				<stop  offset="1" style="stop-color:#4A833E"/>
			</linearGradient>
			<path style="fill:url(#SVGID_00000129921791357545195490000008455090817189642400_);" d="M25.657,500
				c2.679-22.263,19.593-37.396,43.653-48.949c-29.228,2.383-45.618,21.07-54.77,48.949H25.657z"/>
			
				<linearGradient id="SVGID_00000138549163110848692210000011518139570584289447_" gradientUnits="userSpaceOnUse" x1="660.8559" y1="436.4736" x2="660.8559" y2="506.6932">
				<stop  offset="0" style="stop-color:#274F3E"/>
				<stop  offset="1" style="stop-color:#4A833E"/>
			</linearGradient>
			<path style="fill:url(#SVGID_00000138549163110848692210000011518139570584289447_);" d="M675.332,500h9.629
				c-1.251-6.681-10.038-44.736-48.21-46.837C658.232,458.167,670.3,474.755,675.332,500z"/>
			
				<linearGradient id="SVGID_00000083809714935141008520000007269011250064487607_" gradientUnits="userSpaceOnUse" x1="643.2086" y1="436.4736" x2="643.2086" y2="506.6935">
				<stop  offset="0" style="stop-color:#274F3E"/>
				<stop  offset="1" style="stop-color:#4A833E"/>
			</linearGradient>
			<path style="fill:url(#SVGID_00000083809714935141008520000007269011250064487607_);" d="M659.476,500h11.117
				c-9.152-27.879-25.542-46.566-54.77-48.949C639.883,462.604,656.797,477.737,659.476,500z"/>
			
				<linearGradient id="SVGID_00000120553827255543143510000007318948708151854739_" gradientUnits="userSpaceOnUse" x1="716.6353" y1="436.4736" x2="716.6353" y2="506.6934">
				<stop  offset="0" style="stop-color:#274F3E"/>
				<stop  offset="1" style="stop-color:#4A833E"/>
			</linearGradient>
			<path style="fill:url(#SVGID_00000120553827255543143510000007318948708151854739_);" d="M709.341,500
				c-6.427-28.05,9.787-53.859,28.107-79.46c-26.637,21.213-41.823,47.157-41.624,79.46H709.341z"/>
			
				<linearGradient id="SVGID_00000163775690535835180000000013573356887215649712_" gradientUnits="userSpaceOnUse" x1="724.4918" y1="436.3499" x2="724.4918" y2="506.0246">
				<stop  offset="0" style="stop-color:#274F3E"/>
				<stop  offset="1" style="stop-color:#4A833E"/>
			</linearGradient>
			<path style="fill:url(#SVGID_00000163775690535835180000000013573356887215649712_);" d="M726.856,500h9.046
				c2.483-47.849-9.417-65.574-23.151-79.46C728.007,435.55,727.075,491.817,726.856,500z"/>
			
				<linearGradient id="SVGID_00000097480606542828523990000003267725804943368085_" gradientUnits="userSpaceOnUse" x1="713.2653" y1="436.4736" x2="713.2653" y2="506.6934">
				<stop  offset="0" style="stop-color:#274F3E"/>
				<stop  offset="1" style="stop-color:#4A833E"/>
			</linearGradient>
			<path style="fill:url(#SVGID_00000097480606542828523990000003267725804943368085_);" d="M722.808,500
				c-0.65-26.608-8.149-52.221-19.086-77.335c7.266,26.582,11.295,52.413,11.409,77.335H722.808z"/>
			
				<linearGradient id="SVGID_00000088838618858188786010000004846892773986729391_" gradientUnits="userSpaceOnUse" x1="170.2516" y1="436.4737" x2="170.2516" y2="506.6934">
				<stop  offset="0" style="stop-color:#274F3E"/>
				<stop  offset="1" style="stop-color:#4A833E"/>
			</linearGradient>
			<path style="fill:url(#SVGID_00000088838618858188786010000004846892773986729391_);" d="M165.216,500h9.61
				c2.793-25.216-2.428-49.484-9.914-73.485C167.034,455.708,169.424,485.528,165.216,500z"/>
			
				<linearGradient id="SVGID_00000023259012815770104010000003163839645632628909_" gradientUnits="userSpaceOnUse" x1="144.103" y1="436.4736" x2="144.103" y2="506.6934">
				<stop  offset="0" style="stop-color:#274F3E"/>
				<stop  offset="1" style="stop-color:#4A833E"/>
			</linearGradient>
			<path style="fill:url(#SVGID_00000023259012815770104010000003163839645632628909_);" d="M151.398,500h13.516
				c0.2-32.302-14.987-58.247-41.624-79.46C141.61,446.141,157.825,471.95,151.398,500z"/>
			
				<linearGradient id="SVGID_00000095338824936499127370000015180236469545527943_" gradientUnits="userSpaceOnUse" x1="136.2465" y1="436.4736" x2="136.2465" y2="506.6934">
				<stop  offset="0" style="stop-color:#274F3E"/>
				<stop  offset="1" style="stop-color:#4A833E"/>
			</linearGradient>
			<path style="fill:url(#SVGID_00000095338824936499127370000015180236469545527943_);" d="M133.863,500
				c-0.217-8.183-1.131-64.45,14.124-79.46c-13.734,13.885-25.634,31.61-23.151,79.46H133.863z"/>
			
				<linearGradient id="SVGID_00000010302356974473088680000007873310388820900264_" gradientUnits="userSpaceOnUse" x1="77.5824" y1="436.4736" x2="77.5824" y2="506.6934">
				<stop  offset="0" style="stop-color:#274F3E"/>
				<stop  offset="1" style="stop-color:#4A833E"/>
			</linearGradient>
			<path style="fill:url(#SVGID_00000010302356974473088680000007873310388820900264_);" d="M79.368,500h6.725
				c1.756-35.289-7.068-48.419-17.247-58.71C80.049,452.312,79.538,493.095,79.368,500z"/>
			
				<linearGradient id="SVGID_00000108990362853999113020000014788833901167815859_" gradientUnits="userSpaceOnUse" x1="147.4731" y1="436.4736" x2="147.4731" y2="506.6934">
				<stop  offset="0" style="stop-color:#274F3E"/>
				<stop  offset="1" style="stop-color:#4A833E"/>
			</linearGradient>
			<path style="fill:url(#SVGID_00000108990362853999113020000014788833901167815859_);" d="M145.607,500
				c0.113-24.922,4.143-50.754,11.409-77.335C146.079,447.779,138.58,473.392,137.93,500H145.607z"/>
			
				<linearGradient id="SVGID_00000085252869878976939900000013522338944036145575_" gradientUnits="userSpaceOnUse" x1="626.3165" y1="436.4737" x2="626.3165" y2="506.6933">
				<stop  offset="0" style="stop-color:#274F3E"/>
				<stop  offset="1" style="stop-color:#4A833E"/>
			</linearGradient>
			<path style="fill:url(#SVGID_00000085252869878976939900000013522338944036145575_);" d="M625.403,500h8.291
				c1.227-14.506-3.304-26.762-14.949-36.241C626.12,476.269,628.742,488.383,625.403,500z"/>
			
				<linearGradient id="SVGID_00000134212629668907977470000001546722178431664016_" gradientUnits="userSpaceOnUse" x1="598.6505" y1="436.4737" x2="598.6505" y2="506.6932">
				<stop  offset="0" style="stop-color:#274F3E"/>
				<stop  offset="1" style="stop-color:#4A833E"/>
			</linearGradient>
			<path style="fill:url(#SVGID_00000134212629668907977470000001546722178431664016_);" d="M603.878,500
				c-5.919-22.614,0.261-57.419,0.261-57.419c-14.242,25.161-10.876,52-10.001,57.419H603.878z"/>
			
				<linearGradient id="SVGID_00000013167737256231768910000009825521917453574017_" gradientUnits="userSpaceOnUse" x1="566.8434" y1="436.4736" x2="566.8434" y2="506.6934">
				<stop  offset="0" style="stop-color:#274F3E"/>
				<stop  offset="1" style="stop-color:#4A833E"/>
			</linearGradient>
			<path style="fill:url(#SVGID_00000013167737256231768910000009825521917453574017_);" d="M566.557,500h9.445
				c0.675-35.556-18.336-45.734-18.336-45.734C569.536,468.509,567.189,494.617,566.557,500z"/>
		</g>
		<path style="clip-path:url(#SVGID_00000137118824717850231660000015459643101514982051_);fill:#CFCA2E;" d="M481.083,396.753
			c-0.64,0-0.641,0.995,0,0.995C481.723,397.747,481.724,396.753,481.083,396.753z"/>
		<path style="clip-path:url(#SVGID_00000137118824717850231660000015459643101514982051_);fill:#CFCA2E;" d="M484.375,396.669
			c-0.64,0-0.641,0.995,0,0.995C485.015,397.664,485.016,396.669,484.375,396.669z"/>
		<path style="clip-path:url(#SVGID_00000137118824717850231660000015459643101514982051_);fill:#CFCA2E;" d="M484.925,393.742
			c-0.129-0.141-0.28-0.169-0.419-0.138c-0.335-0.327-0.995,0.125-0.754,0.642c0.218,0.468,0.489,0.92,0.982,1.131
			c0.415,0.178,0.802-0.112,0.731-0.562C485.398,394.394,485.211,394.054,484.925,393.742z"/>
		<path style="clip-path:url(#SVGID_00000137118824717850231660000015459643101514982051_);fill:#CFCA2E;" d="M481.881,393.942
			c-0.195-0.068-0.39-0.137-0.584-0.205c-0.605-0.213-0.865,0.748-0.264,0.959c0.195,0.068,0.39,0.137,0.584,0.205
			C482.221,395.113,482.482,394.153,481.881,393.942z"/>
		<path style="clip-path:url(#SVGID_00000137118824717850231660000015459643101514982051_);fill:#CFCA2E;" d="M482.086,396.958V397
			c0,0.64,0.995,0.641,0.995,0v-0.042C483.081,396.318,482.086,396.317,482.086,396.958z"/>
		<path style="clip-path:url(#SVGID_00000137118824717850231660000015459643101514982051_);fill:#CFCA2E;" d="M478.5,396.336
			c-0.64,0-0.641,0.995,0,0.995C479.14,397.331,479.141,396.336,478.5,396.336z"/>
		<path style="clip-path:url(#SVGID_00000137118824717850231660000015459643101514982051_);fill:#CFCA2E;" d="M478.852,399.16
			c-0.03-0.108-0.036-0.216-0.02-0.327c0.033-0.64-0.962-0.638-0.995,0c-0.011,0.205,0.012,0.391,0.055,0.591
			C478.029,400.05,478.988,399.785,478.852,399.16z"/>
		<path style="clip-path:url(#SVGID_00000137118824717850231660000015459643101514982051_);fill:#CFCA2E;" d="M475.214,394.107
			c-0.042-0.014-0.083-0.028-0.125-0.043c-0.607-0.207-0.868,0.754-0.264,0.959l0.125,0.042
			C475.557,395.273,475.818,394.313,475.214,394.107z"/>
		<path style="clip-path:url(#SVGID_00000137118824717850231660000015459643101514982051_);fill:#CFCA2E;" d="M478.625,393.753
			c-0.64,0-0.641,0.995,0,0.995C479.265,394.747,479.266,393.753,478.625,393.753z"/>
		<path style="clip-path:url(#SVGID_00000137118824717850231660000015459643101514982051_);fill:#CFCA2E;" d="M472.458,397.169
			c-0.64,0-0.641,0.995,0,0.995C473.098,398.164,473.099,397.169,472.458,397.169z"/>
		<path style="clip-path:url(#SVGID_00000137118824717850231660000015459643101514982051_);fill:#CFCA2E;" d="M492,398.336
			c-0.64,0-0.641,0.995,0,0.995C492.64,399.331,492.641,398.336,492,398.336z"/>
		<path style="clip-path:url(#SVGID_00000137118824717850231660000015459643101514982051_);fill:#CFCA2E;" d="M494.815,390.912
			c-0.124,0.166-0.275,0.301-0.436,0.429c-0.49,0.427,0.213,1.095,0.703,0.703c0.127-0.111,0.254-0.222,0.381-0.333
			c0.073-0.064,0.112-0.135,0.135-0.206c0.025-0.031,0.051-0.059,0.075-0.091C496.059,390.902,495.195,390.405,494.815,390.912z"/>
		<path style="clip-path:url(#SVGID_00000137118824717850231660000015459643101514982051_);fill:#CFCA2E;" d="M491.16,388.96
			c-0.075,0.168-0.143,0.294-0.267,0.433c-0.426,0.476,0.275,1.182,0.703,0.703c0.176-0.196,0.316-0.393,0.423-0.634
			C492.277,388.882,491.42,388.375,491.16,388.96z"/>
		<path style="clip-path:url(#SVGID_00000137118824717850231660000015459643101514982051_);fill:#CFCA2E;" d="M489.792,392.503
			c-0.64,0-0.641,0.995,0,0.995C490.432,393.497,490.433,392.503,489.792,392.503z"/>
		<path style="clip-path:url(#SVGID_00000137118824717850231660000015459643101514982051_);fill:#CFCA2E;" d="M553,354.253h-1.219
			c-0.64,0-0.641,0.995,0,0.995H553C553.64,355.247,553.641,354.253,553,354.253z"/>
		<path style="clip-path:url(#SVGID_00000137118824717850231660000015459643101514982051_);fill:#CFCA2E;" d="M557.625,354.503
			c-0.64,0-0.641,0.995,0,0.995C558.265,355.497,558.266,354.503,557.625,354.503z"/>
		<path style="clip-path:url(#SVGID_00000137118824717850231660000015459643101514982051_);fill:#CFCA2E;" d="M557.336,352.148
			l-0.063,0.063c-0.453,0.453,0.25,1.157,0.703,0.703c0.021-0.021,0.042-0.042,0.063-0.063
			C558.492,352.398,557.789,351.695,557.336,352.148z"/>
		<path style="clip-path:url(#SVGID_00000137118824717850231660000015459643101514982051_);fill:#CFCA2E;" d="M556.25,353.315
			c-0.64,0-0.641,0.995,0,0.995C556.89,354.31,556.891,353.315,556.25,353.315z"/>
		<path style="clip-path:url(#SVGID_00000137118824717850231660000015459643101514982051_);fill:#CFCA2E;" d="M554.836,353.898
			l-0.063,0.063c-0.453,0.453,0.25,1.157,0.703,0.703c0.021-0.021,0.042-0.042,0.063-0.063
			C555.992,354.148,555.289,353.445,554.836,353.898z"/>
		<path style="clip-path:url(#SVGID_00000137118824717850231660000015459643101514982051_);fill:#CFCA2E;" d="M553.563,352.44
			c-0.155,0.004-0.31,0.008-0.464,0.011c-0.342,0.008-0.666,0.43-0.43,0.748c0.257,0.346,0.538,0.454,0.96,0.395
			c0.265-0.037,0.364-0.228,0.352-0.43C554.125,352.867,553.991,352.43,553.563,352.44z"/>
		<path style="clip-path:url(#SVGID_00000137118824717850231660000015459643101514982051_);fill:#CFCA2E;" d="M561.36,354.788
			c-0.006,0.003-0.011,0.002-0.017,0.005c-0.227,0.119-0.368,0.267-0.522,0.467c-0.256,0.334,0.173,0.885,0.562,0.731
			c0.333-0.133,0.569-0.308,0.758-0.617C562.454,354.861,561.73,354.403,561.36,354.788z"/>
		<path style="clip-path:url(#SVGID_00000137118824717850231660000015459643101514982051_);fill:#CFCA2E;" d="M560.687,353.439
			c-0.07-0.004-0.141-0.008-0.212-0.012c-0.626-0.113-0.895,0.845-0.265,0.959c0.169,0.031,0.304,0.049,0.476,0.047
			C561.327,354.43,561.329,353.435,560.687,353.439z"/>
		<path style="clip-path:url(#SVGID_00000137118824717850231660000015459643101514982051_);fill:#CFCA2E;" d="M562.896,351.782
			c-0.13-0.249-0.367-0.285-0.568-0.206c-0.446-0.07-0.883,0.472-0.459,0.805c0.133,0.105,0.233,0.182,0.385,0.258
			c0.346,0.173,0.726-0.04,0.748-0.429C563.012,352.044,562.972,351.927,562.896,351.782z"/>
		<path style="clip-path:url(#SVGID_00000137118824717850231660000015459643101514982051_);fill:#CFCA2E;" d="M559.782,351.542
			c-0.073,0.052-0.146,0.104-0.219,0.156c-0.517,0.369-0.021,1.232,0.502,0.859l0.219-0.156
			C560.801,352.032,560.305,351.169,559.782,351.542z"/>
		<path style="clip-path:url(#SVGID_00000137118824717850231660000015459643101514982051_);fill:#CFCA2E;" d="M565,350.668
			c-0.184,0.006-0.349,0.113-0.383,0.357c-0.028,0.197-0.045,0.33,0.031,0.518c0.138,0.346,0.715,0.554,0.909,0.119
			c0.064-0.144,0.111-0.251,0.14-0.406C565.781,350.809,565.316,350.551,565,350.668z"/>
		<path style="clip-path:url(#SVGID_00000137118824717850231660000015459643101514982051_);fill:#CFCA2E;" d="M565.031,353.384
			c-0.084,0.095-0.19,0.141-0.319,0.136c-0.631,0.093-0.363,1.052,0.265,0.959c0.215-0.032,0.384-0.103,0.557-0.236
			C566.033,353.857,565.538,352.993,565.031,353.384z"/>
		<path style="clip-path:url(#SVGID_00000137118824717850231660000015459643101514982051_);fill:#CFCA2E;" d="M557.031,356.784
			h-0.281c-0.64,0-0.641,0.995,0,0.995h0.281C557.671,357.779,557.672,356.784,557.031,356.784z"/>
		<path style="clip-path:url(#SVGID_00000137118824717850231660000015459643101514982051_);fill:#CFCA2E;" d="M552.801,356.662
			c-0.19-0.239-0.44-0.33-0.738-0.342c-0.317-0.013-0.475,0.224-0.478,0.47c-0.141,0.261-0.087,0.619,0.283,0.689
			c0.201,0.038,0.377,0.057,0.581,0.032C552.895,357.457,553.082,357.016,552.801,356.662z"/>
		<path style="clip-path:url(#SVGID_00000137118824717850231660000015459643101514982051_);fill:#CFCA2E;" d="M548.07,354.956
			c-0.031-0.011-0.062-0.021-0.094-0.032c-0.607-0.207-0.868,0.754-0.265,0.959l0.094,0.032
			C548.413,356.122,548.674,355.162,548.07,354.956z"/>
		<path style="clip-path:url(#SVGID_00000137118824717850231660000015459643101514982051_);fill:#CFCA2E;" d="M547.75,353.721
			c-0.64,0-0.641,0.995,0,0.995C548.39,354.716,548.391,353.721,547.75,353.721z"/>
		<path style="clip-path:url(#SVGID_00000137118824717850231660000015459643101514982051_);fill:#CFCA2E;" d="M543.844,354.44
			c-0.64,0-0.641,0.995,0,0.995C544.484,355.435,544.485,354.44,543.844,354.44z"/>
		<path style="clip-path:url(#SVGID_00000137118824717850231660000015459643101514982051_);fill:#CFCA2E;" d="M541.906,355.94
			h-0.063c-0.64,0-0.641,0.995,0,0.995h0.063C542.546,356.935,542.547,355.94,541.906,355.94z"/>
		<path style="clip-path:url(#SVGID_00000137118824717850231660000015459643101514982051_);fill:#CFCA2E;" d="M540.469,353.44
			c-0.64,0-0.641,0.995,0,0.995C541.109,354.435,541.11,353.44,540.469,353.44z"/>
		<path style="clip-path:url(#SVGID_00000137118824717850231660000015459643101514982051_);fill:#CFCA2E;" d="M541.029,358.007
			c-0.072-0.157-0.168-0.281-0.303-0.388c-0.463-0.367-1.097,0.214-0.776,0.616c-0.004,0.116,0.046,0.234,0.171,0.334
			c0.154,0.123,0.278,0.198,0.479,0.186C540.999,358.732,541.189,358.356,541.029,358.007z"/>
		<path style="clip-path:url(#SVGID_00000137118824717850231660000015459643101514982051_);fill:#CFCA2E;" d="M566.468,357.317
			c-0.165-0.007-0.284,0.01-0.446,0.043c-0.627,0.129-0.361,1.088,0.265,0.959c0.06-0.002,0.121-0.005,0.181-0.007
			C567.108,358.339,567.107,357.344,566.468,357.317z"/>
		<path style="clip-path:url(#SVGID_00000137118824717850231660000015459643101514982051_);fill:#CFCA2E;" d="M571.095,353.751
			c-0.478,0.361,0.003,1.174,0.53,0.832c0.296-0.193,0.4-0.392,0.436-0.74C572.125,353.243,571.25,353.221,571.095,353.751z"/>
		<path style="clip-path:url(#SVGID_00000137118824717850231660000015459643101514982051_);fill:#CFCA2E;" d="M575.618,348.927
			c-0.028-0.217-0.176-0.4-0.461-0.365c-0.404,0.051-0.747,0.304-0.704,0.755c0.03,0.322,0.293,0.565,0.63,0.48
			c0.206-0.052,0.321-0.129,0.486-0.259C575.802,349.351,575.767,349.102,575.618,348.927z"/>
		<path style="clip-path:url(#SVGID_00000137118824717850231660000015459643101514982051_);fill:#CFCA2E;" d="M570.338,350.373
			c-0.333,0.052-0.667,0.104-1,0.155c-0.631,0.098-0.363,1.057,0.264,0.959c0.333-0.052,0.667-0.104,1-0.155
			C571.233,351.235,570.965,350.276,570.338,350.373z"/>
		<path style="clip-path:url(#SVGID_00000137118824717850231660000015459643101514982051_);fill:#CFCA2E;" d="M572.253,348v0.063
			c0,0.64,0.995,0.641,0.995,0V348C573.247,347.36,572.253,347.359,572.253,348z"/>
		<path style="clip-path:url(#SVGID_00000137118824717850231660000015459643101514982051_);fill:#CFCA2E;" d="M578.766,346.548
			c-0.014-0.02-0.033-0.028-0.048-0.045c-0.106-0.482-0.869-0.636-0.949-0.073c-0.061,0.431-0.136,0.986,0.473,1.036
			C578.727,347.506,579.053,346.948,578.766,346.548z"/>
		<path style="clip-path:url(#SVGID_00000137118824717850231660000015459643101514982051_);fill:#CFCA2E;" d="M579.727,350.374
			c-0.01,0.021-0.021,0.042-0.031,0.063c-0.286,0.571,0.572,1.075,0.859,0.502c0.01-0.021,0.021-0.042,0.031-0.063
			C580.871,350.305,580.013,349.801,579.727,350.374z"/>
		<path style="clip-path:url(#SVGID_00000137118824717850231660000015459643101514982051_);fill:#CFCA2E;" d="M577.063,352.29
			c-0.083,0-0.167-0.001-0.25-0.001c-0.64-0.003-0.641,0.992,0,0.995c0.083,0,0.167,0.001,0.25,0.001
			C577.703,353.288,577.703,352.293,577.063,352.29z"/>
		<path style="clip-path:url(#SVGID_00000137118824717850231660000015459643101514982051_);fill:#CFCA2E;" d="M568.72,353.354
			c-0.15,0.096-0.274,0.15-0.447,0.192c-0.622,0.151-0.359,1.11,0.264,0.959c0.249-0.06,0.469-0.154,0.684-0.292
			C569.759,353.869,569.261,353.007,568.72,353.354z"/>
		<path style="clip-path:url(#SVGID_00000137118824717850231660000015459643101514982051_);fill:#CFCA2E;" d="M569.157,347.742
			c-0.379-0.222-0.804,0.11-1.129,0.292c-0.13,0.073-0.197,0.176-0.225,0.286c-0.319,0.055-0.586,0.375-0.348,0.709
			c0.498,0.699,1.587,0.278,1.916-0.411C569.514,348.318,569.46,347.92,569.157,347.742z"/>
		<path style="clip-path:url(#SVGID_00000137118824717850231660000015459643101514982051_);fill:#CFCA2E;" d="M389.485,340.791
			c-0.16-1.091-0.971-2.104-2.118-1.754c-0.059,0.007-0.114,0.023-0.168,0.048c-0.008,0.003-0.015,0.003-0.023,0.007
			c-0.003,0.001-0.004,0.004-0.007,0.005c-0.034,0.018-0.062,0.04-0.091,0.064c-0.049,0.037-0.086,0.078-0.11,0.124
			c-0.08,0.13-0.097,0.293,0.024,0.463c0.475,0.665,1.05,1.202,1.762,1.606C389.166,341.587,389.546,341.203,389.485,340.791z"/>
		<path style="clip-path:url(#SVGID_00000137118824717850231660000015459643101514982051_);fill:#CFCA2E;" d="M383.169,338.5v0.083
			c0,0.64,0.995,0.641,0.995,0V338.5C384.164,337.86,383.169,337.859,383.169,338.5z"/>
		<path style="clip-path:url(#SVGID_00000137118824717850231660000015459643101514982051_);fill:#CFCA2E;" d="M393.685,339.815
			c-0.028-0.028-0.056-0.056-0.083-0.083c-0.453-0.453-1.157,0.25-0.703,0.703l0.083,0.083
			C393.435,340.972,394.138,340.268,393.685,339.815z"/>
		<path style="clip-path:url(#SVGID_00000137118824717850231660000015459643101514982051_);fill:#CFCA2E;" d="M386.791,334.379
			c-0.185-0.076-0.331-0.027-0.436,0.073c-0.052-0.052-0.113-0.086-0.162-0.144c-0.415-0.489-1.116,0.218-0.704,0.703
			c0.42,0.495,0.966,0.826,1.594,0.986c0.379,0.097,0.695-0.242,0.612-0.612C387.582,334.883,387.256,334.571,386.791,334.379z"/>
		<path style="clip-path:url(#SVGID_00000137118824717850231660000015459643101514982051_);fill:#CFCA2E;" d="M379.663,335.08
			l-0.166-0.085c-0.569-0.29-1.073,0.568-0.502,0.859c0.055,0.028,0.111,0.056,0.166,0.085
			C379.73,336.229,380.234,335.371,379.663,335.08z"/>
		<path style="clip-path:url(#SVGID_00000137118824717850231660000015459643101514982051_);fill:#CFCA2E;" d="M392.168,336.987
			c-0.222-0.111-0.444-0.222-0.667-0.333c-0.571-0.286-1.075,0.572-0.502,0.859c0.222,0.111,0.444,0.222,0.667,0.333
			C392.237,338.132,392.741,337.274,392.168,336.987z"/>
		<path style="clip-path:url(#SVGID_00000137118824717850231660000015459643101514982051_);fill:#CFCA2E;" d="M386.09,341.252
			c-0.028-0.083-0.03-0.167-0.006-0.252c0.079-0.634-0.917-0.628-0.995,0c-0.035,0.277,0.031,0.502,0.142,0.754
			C385.49,342.339,386.347,341.833,386.09,341.252z"/>
		<path style="clip-path:url(#SVGID_00000137118824717850231660000015459643101514982051_);fill:#CFCA2E;" d="M383.662,335.83
			c-0.138-0.084-0.276-0.169-0.415-0.253c-0.548-0.335-1.048,0.525-0.502,0.859l0.414,0.253
			C383.707,337.024,384.208,336.164,383.662,335.83z"/>
		<path style="clip-path:url(#SVGID_00000137118824717850231660000015459643101514982051_);fill:#CFCA2E;" d="M379.475,337.894
			c-0.398-0.171-0.938,0.237-0.638,0.678c0.134,0.196,0.202,0.371,0.243,0.604c0.089,0.504,0.832,0.442,0.959,0
			c0.08-0.279,0.119-0.552,0.125-0.842C380.172,337.924,379.77,337.779,379.475,337.894z"/>
		<path style="clip-path:url(#SVGID_00000137118824717850231660000015459643101514982051_);fill:#CFCA2E;" d="M394.434,344.733
			c-0.241-0.198-0.533-0.129-0.71,0.04c-0.268,0.038-0.525,0.266-0.455,0.61c0.08,0.395,0.212,0.755,0.388,1.117
			c0.05,0.103,0.122,0.162,0.2,0.201c-0.039,0.175,0.021,0.358,0.245,0.456c0.602,0.262,1.155-0.113,1.151-0.781
			C395.248,345.738,394.919,345.132,394.434,344.733z"/>
		<path style="clip-path:url(#SVGID_00000137118824717850231660000015459643101514982051_);fill:#CFCA2E;" d="M399.551,344.259
			c-0.277-0.058-0.555-0.116-0.832-0.174c-0.625-0.131-0.892,0.828-0.264,0.959c0.277,0.058,0.555,0.116,0.832,0.174
			C399.912,345.349,400.179,344.39,399.551,344.259z"/>
		<path style="clip-path:url(#SVGID_00000137118824717850231660000015459643101514982051_);fill:#CFCA2E;" d="M395.169,343.167
			v0.167c0,0.64,0.995,0.641,0.995,0v-0.167C396.164,342.527,395.169,342.526,395.169,343.167z"/>
		<path style="clip-path:url(#SVGID_00000137118824717850231660000015459643101514982051_);fill:#CFCA2E;" d="M390.641,344.453
			c-0.028-0.083-0.057-0.166-0.085-0.25c-0.205-0.603-1.166-0.344-0.959,0.265c0.028,0.083,0.057,0.166,0.085,0.249
			C389.888,345.32,390.849,345.061,390.641,344.453z"/>
		<path style="clip-path:url(#SVGID_00000137118824717850231660000015459643101514982051_);fill:#CFCA2E;" d="M382.634,344.366
			c-0.479-0.078-0.745,0.462-0.563,0.767c-0.015,0.356,0.487,0.7,0.869,0.398C383.361,345.198,383.16,344.452,382.634,344.366z"/>
		<path style="clip-path:url(#SVGID_00000137118824717850231660000015459643101514982051_);fill:#CFCA2E;" d="M382.587,341.316
			l-0.251-0.165c-0.536-0.353-1.035,0.508-0.502,0.859l0.251,0.165C382.621,342.528,383.12,341.667,382.587,341.316z"/>
		<path style="clip-path:url(#SVGID_00000137118824717850231660000015459643101514982051_);fill:#CFCA2E;" d="M376.227,338.558
			c-0.269-0.309-0.571-0.567-0.907-0.8c-0.381-0.264-0.74,0.112-0.717,0.478c-0.119,0.214-0.109,0.511,0.151,0.687
			c0.309,0.209,0.634,0.358,0.989,0.467C376.248,339.545,376.535,338.912,376.227,338.558z"/>
		<path style="clip-path:url(#SVGID_00000137118824717850231660000015459643101514982051_);fill:#CFCA2E;" d="M375.441,331.576
			c-0.266-0.548-1.046-0.116-0.88,0.422c-0.186,0.098-0.33,0.29-0.288,0.551c0.046,0.286,0.148,0.541,0.305,0.785
			c0.188,0.293,0.685,0.352,0.859,0C375.727,332.747,375.727,332.164,375.441,331.576z"/>
		<path style="clip-path:url(#SVGID_00000137118824717850231660000015459643101514982051_);fill:#CFCA2E;" d="M379.973,331.411
			c-0.556-0.202-0.811,0.594-0.379,0.89c0.007,0.04,0.008,0.08,0.025,0.121c0.243,0.574,1.044,0.962,1.44,0.279
			C381.477,331.981,380.478,331.595,379.973,331.411z"/>
		<path style="clip-path:url(#SVGID_00000137118824717850231660000015459643101514982051_);fill:#CFCA2E;" d="M370.342,332.949
			c-0.029,0.167-0.057,0.333-0.086,0.5c-0.108,0.626,0.851,0.895,0.959,0.264c0.029-0.167,0.057-0.333,0.086-0.5
			C371.409,332.587,370.451,332.318,370.342,332.949z"/>
		<path style="clip-path:url(#SVGID_00000137118824717850231660000015459643101514982051_);fill:#CFCA2E;" d="M372.146,330.034
			c-0.105-0.63-1.064-0.363-0.959,0.264c0.028,0.167,0.056,0.333,0.083,0.5c0.105,0.63,1.064,0.363,0.959-0.264
			C372.202,330.368,372.174,330.201,372.146,330.034z"/>
		<path style="clip-path:url(#SVGID_00000137118824717850231660000015459643101514982051_);fill:#CFCA2E;" d="M376.583,329.003
			c-0.64,0-0.641,0.995,0,0.995C377.223,329.997,377.224,329.003,376.583,329.003z"/>
		<path style="clip-path:url(#SVGID_00000137118824717850231660000015459643101514982051_);fill:#CFCA2E;" d="M409.301,345.513
			c-0.362-0.107-0.725-0.213-1.087-0.319c-0.615-0.181-0.878,0.779-0.264,0.959l1.087,0.319
			C409.652,346.653,409.915,345.693,409.301,345.513z"/>
		<path style="clip-path:url(#SVGID_00000137118824717850231660000015459643101514982051_);fill:#CFCA2E;" d="M402.25,347.836
			c-0.64,0-0.641,0.995,0,0.995C402.89,348.831,402.891,347.836,402.25,347.836z"/>
		<path style="clip-path:url(#SVGID_00000137118824717850231660000015459643101514982051_);fill:#CFCA2E;" d="M401.559,340.537
			c-0.161-0.452-0.748-0.415-0.933-0.11c-0.354,0.05-0.64,0.509-0.311,0.841c0.086,0.086,0.171,0.173,0.257,0.259
			c0.142,0.143,0.428,0.206,0.603,0.078C401.528,341.346,401.714,340.973,401.559,340.537z"/>
		<path style="clip-path:url(#SVGID_00000137118824717850231660000015459643101514982051_);fill:#CFCA2E;" d="M16.452,346.697
			c-0.559-0.426-1.231-0.54-1.912-0.405c-0.557,0.11-0.408,0.874,0.069,0.959c-0.004,0.202,0.094,0.404,0.342,0.479
			c0.52,0.158,1.028,0.093,1.5-0.173C16.808,347.355,16.734,346.913,16.452,346.697z"/>
		<path style="clip-path:url(#SVGID_00000137118824717850231660000015459643101514982051_);fill:#CFCA2E;" d="M15.917,349.919
			c-0.444,0.028-0.889,0.055-1.333,0.083c-0.636,0.04-0.641,1.035,0,0.995c0.444-0.028,0.889-0.056,1.333-0.083
			C16.553,350.874,16.557,349.879,15.917,349.919z"/>
		<path style="clip-path:url(#SVGID_00000137118824717850231660000015459643101514982051_);fill:#CFCA2E;" d="M9.417,349.586h-0.25
			c-0.64,0-0.641,0.995,0,0.995h0.25C10.057,350.581,10.058,349.586,9.417,349.586z"/>
		<path style="clip-path:url(#SVGID_00000137118824717850231660000015459643101514982051_);fill:#CFCA2E;" d="M22.296,350.954
			c-0.135-0.042-0.25-0.022-0.345,0.027c-0.45-0.204-0.98,0.397-0.558,0.793c0.278,0.262,0.588,0.436,0.965,0.506
			c0.389,0.072,0.684-0.223,0.612-0.612C22.9,351.293,22.652,351.066,22.296,350.954z"/>
		<path style="clip-path:url(#SVGID_00000137118824717850231660000015459643101514982051_);fill:#CFCA2E;" d="M18.5,348.836H18
			c-0.64,0-0.641,0.995,0,0.995h0.5C19.14,349.831,19.141,348.836,18.5,348.836z"/>
		<path style="clip-path:url(#SVGID_00000137118824717850231660000015459643101514982051_);fill:#CFCA2E;" d="M12.869,348.306
			c-0.274-0.208-0.574-0.343-0.909-0.422c-0.431-0.102-0.682,0.324-0.595,0.646c-0.322,0.179-0.371,0.777,0.094,0.933
			c0.549,0.184,1.108,0.036,1.51-0.375C13.215,348.836,13.121,348.498,12.869,348.306z"/>
		<path style="clip-path:url(#SVGID_00000137118824717850231660000015459643101514982051_);fill:#CFCA2E;" d="M10.798,352.528
			c-0.222-0.033-0.443-0.066-0.665-0.098c-0.626-0.092-0.896,0.866-0.264,0.959l0.665,0.098
			C11.16,353.58,11.43,352.621,10.798,352.528z"/>
		<path style="clip-path:url(#SVGID_00000137118824717850231660000015459643101514982051_);fill:#CFCA2E;" d="M5.823,346.573
			c-0.184,0.154-0.406,0.058-0.542-0.1c-0.42-0.485-1.121,0.221-0.703,0.703c0.515,0.595,1.371,0.585,1.949,0.1
			C7.017,346.865,6.311,346.164,5.823,346.573z"/>
		<path style="clip-path:url(#SVGID_00000137118824717850231660000015459643101514982051_);fill:#CFCA2E;" d="M2.099,349.323
			c-0.369-0.053-0.747,0.466-0.433,0.861c0.209,0.263,0.637,0.258,0.848,0.001C2.83,349.799,2.467,349.288,2.099,349.323z"/>
		<path style="clip-path:url(#SVGID_00000137118824717850231660000015459643101514982051_);fill:#CFCA2E;" d="M29.336,353.825
			c-0.056,0.002-0.112,0.003-0.168,0.005c-0.635-0.073-0.629,0.922,0,0.995c0.252,0.029,0.447-0.03,0.67-0.141
			C30.412,354.401,29.908,353.542,29.336,353.825z"/>
		<path style="clip-path:url(#SVGID_00000137118824717850231660000015459643101514982051_);fill:#CFCA2E;" d="M23.666,348.358
			c-0.266-0.031-0.413,0.128-0.455,0.327c-0.353,0.104-0.544,0.66-0.132,0.917c0.485,0.303,1.608,0.847,1.976,0.111
			C25.449,348.928,24.239,348.425,23.666,348.358z"/>
		<path style="clip-path:url(#SVGID_00000137118824717850231660000015459643101514982051_);fill:#CFCA2E;" d="M18.099,352.151
			c-0.139-0.111-0.278-0.221-0.418-0.332c-0.496-0.395-1.205,0.305-0.704,0.703c0.139,0.111,0.278,0.221,0.418,0.332
			C17.892,353.249,18.6,352.55,18.099,352.151z"/>
		<path style="clip-path:url(#SVGID_00000137118824717850231660000015459643101514982051_);fill:#CFCA2E;" d="M5.664,350.783
			c-0.259-0.033-0.506-0.109-0.742-0.22c-0.576-0.271-1.082,0.587-0.502,0.859c0.406,0.191,0.8,0.3,1.244,0.356
			C6.297,351.858,6.291,350.863,5.664,350.783z"/>
		<path style="clip-path:url(#SVGID_00000137118824717850231660000015459643101514982051_);fill:#CFCA2E;" d="M33.333,352.169h-1
			c-0.64,0-0.641,0.995,0,0.995h1C33.973,353.164,33.974,352.169,33.333,352.169z"/>
		<path style="clip-path:url(#SVGID_00000137118824717850231660000015459643101514982051_);fill:#CFCA2E;" d="M29.755,351.846
			c-0.082-0.292-0.339-0.382-0.57-0.335c-0.413-0.165-0.894,0.418-0.523,0.832C29.087,352.819,29.953,352.557,29.755,351.846z"/>
		<path style="clip-path:url(#SVGID_00000137118824717850231660000015459643101514982051_);fill:#CFCA2E;" d="M24.833,352.919
			c-0.64,0-0.641,0.995,0,0.995C25.473,353.914,25.475,352.919,24.833,352.919z"/>
		<path style="clip-path:url(#SVGID_00000137118824717850231660000015459643101514982051_);fill:#CFCA2E;" d="M19.167,355.586
			c-0.64,0-0.641,0.995,0,0.995C19.807,356.581,19.808,355.586,19.167,355.586z"/>
		<path style="clip-path:url(#SVGID_00000137118824717850231660000015459643101514982051_);fill:#CFCA2E;" d="M43.086,358.953
			c-0.309-0.321-0.841-0.56-1.257-0.301c-0.945,0.586-0.062,1.883,0.822,1.912c0.129,0.563,1.043,0.553,0.976-0.06
			C43.568,359.953,43.489,359.371,43.086,358.953z"/>
		<path style="clip-path:url(#SVGID_00000137118824717850231660000015459643101514982051_);fill:#CFCA2E;" d="M35.049,358.937
			c-0.194-0.028-0.389-0.056-0.583-0.083c-0.626-0.09-0.897,0.869-0.264,0.959c0.194,0.028,0.389,0.056,0.583,0.083
			C35.411,359.986,35.681,359.027,35.049,358.937z"/>
		<path style="clip-path:url(#SVGID_00000137118824717850231660000015459643101514982051_);fill:#CFCA2E;" d="M27.906,357.436
			c-0.298-0.287-0.693-0.094-0.814,0.197c-0.003-0.001-0.005-0.004-0.008-0.005c-0.541-0.346-1.04,0.514-0.502,0.859
			c0.403,0.258,0.931,0.421,1.317,0.038C28.208,358.219,28.219,357.737,27.906,357.436z"/>
		<path style="clip-path:url(#SVGID_00000137118824717850231660000015459643101514982051_);fill:#CFCA2E;" d="M36.501,356.904
			c-0.083-0.056-0.167-0.111-0.25-0.167c-0.534-0.356-1.033,0.505-0.502,0.859c0.083,0.056,0.167,0.111,0.25,0.167
			C36.533,358.119,37.032,357.258,36.501,356.904z"/>
		<path style="clip-path:url(#SVGID_00000137118824717850231660000015459643101514982051_);fill:#CFCA2E;" d="M43.333,354.669H42.75
			c-0.64,0-0.641,0.995,0,0.995h0.583C43.973,355.664,43.974,354.669,43.333,354.669z"/>
		<path style="clip-path:url(#SVGID_00000137118824717850231660000015459643101514982051_);fill:#CFCA2E;" d="M12.253,355.924
			c-0.213-0.381-0.673-0.265-0.85,0.022c-0.48-0.348-1.135,0.318-0.663,0.726c0.337,0.291,0.784,0.556,1.227,0.308
			C12.358,356.762,12.462,356.297,12.253,355.924z"/>
		<path style="clip-path:url(#SVGID_00000137118824717850231660000015459643101514982051_);fill:#CFCA2E;" d="M18.833,361.086
			c-0.64,0-0.641,0.995,0,0.995C19.473,362.081,19.475,361.086,18.833,361.086z"/>
		<path style="clip-path:url(#SVGID_00000137118824717850231660000015459643101514982051_);fill:#CFCA2E;" d="M23.5,363.169
			c-0.64,0-0.641,0.995,0,0.995C24.14,364.164,24.141,363.169,23.5,363.169z"/>
		<path style="clip-path:url(#SVGID_00000137118824717850231660000015459643101514982051_);fill:#CFCA2E;" d="M27.01,362.469
			c-0.468-0.24-1.262-0.613-1.761-0.262c-0.446,0.314-0.338,1.03,0.205,1.159c0.253,0.06,0.441-0.065,0.541-0.242
			c0.009,0.003,0.018,0.003,0.027,0.006c0.17,0.047,0.328,0.117,0.485,0.198C27.076,363.619,27.58,362.761,27.01,362.469z"/>
		<path style="clip-path:url(#SVGID_00000137118824717850231660000015459643101514982051_);fill:#CFCA2E;" d="M39.75,364.169
			c-0.64,0-0.641,0.995,0,0.995C40.39,365.164,40.391,364.169,39.75,364.169z"/>
		<path style="clip-path:url(#SVGID_00000137118824717850231660000015459643101514982051_);fill:#CFCA2E;" d="M52.75,362.753H52.5
			c-0.64,0-0.641,0.995,0,0.995h0.25C53.39,363.747,53.391,362.753,52.75,362.753z"/>
	</g>
</g>
</svg>
